<?xml version="1.0" encoding="UTF-8"?>
<!DOCTYPE svg PUBLIC "-//W3C//DTD SVG 1.1//EN" "http://www.w3.org/Graphics/SVG/1.1/DTD/svg11.dtd">
<!-- Creator: CorelDRAW 2021 (64-Bit) -->
<svg xmlns="http://www.w3.org/2000/svg" xml:space="preserve" width="378px" height="378px" version="1.1" shape-rendering="geometricPrecision" text-rendering="geometricPrecision" image-rendering="optimizeQuality" fill-rule="evenodd" clip-rule="evenodd"
viewBox="0 0 378 378"
 xmlns:xlink="http://www.w3.org/1999/xlink"
 xmlns:xodm="http://www.corel.com/coreldraw/odm/2003">
 <g id="Layer_x0020_1">
  <metadata id="CorelCorpID_0Corel-Layer"/>
  <path fill="#454545" d="M222.4 274.95c32.28,0 26.47,-26.26 50.13,-26.26 9.01,0 32.82,16.44 41.55,21.71 31.44,18.98 48,22.96 22.6,48.41 -21.11,21.17 -42.28,30.14 -74.89,30.14 -27.67,0 -64.47,-21.51 -83.18,-32.6 -11.9,-7.04 -31.79,-21.1 -42.42,-30.39l-50.55 -52.1c-25.66,-32.86 -56.61,-80.74 -56.61,-126.02 0,-35.8 32.8,-78.78 48.94,-78.78 12.91,0 19.45,18.27 29.02,34.24 4.98,8.31 22.31,34.4 22.31,42.16 0,21.13 -30.96,25.51 -26.47,50.25 3.71,20.39 31.19,56.52 47.06,72.39 7.06,7.07 12.99,12.39 21.01,18.38 8.86,6.61 41.14,28.47 51.5,28.47zm-222.01 -167.11c0,31.21 9.4,55.79 22.66,81.18l12.01 21.41c23.42,40.95 54.97,74.09 90.93,103.63 30.05,24.69 95.48,63.54 133.41,63.54 32.91,0 56.14,-5.25 81,-24.03 16.89,-12.75 37.17,-30.43 37.17,-53.55 0,-20.82 -12.2,-32.11 -27.08,-40.96 -17.2,-10.25 -58.51,-39.02 -75.57,-39.02 -13.16,0 -20.68,1.62 -31.56,9.03 -4.48,3.05 -14.63,13.13 -17.38,17.23 -4.97,-2.63 -9.91,-4.63 -15.02,-7.66 -5.53,-3.27 -9.44,-5.88 -14.59,-9.28 -9.33,-6.19 -18.38,-13.74 -26.19,-21.55 -19.38,-19.37 -26.6,-33.32 -38.5,-55.8 11.22,-7.51 26.26,-26.09 26.26,-42.97 0,-19.29 -3.93,-23.02 -13.06,-38.27 -4.74,-7.91 -28.96,-50.24 -34.36,-56.35 -16.11,-18.19 -46.18,-19.07 -65.09,0 -25.74,25.96 -45.04,53.37 -45.04,93.42z"/>
  <path fill="#454545" d="M2093.82 -333.03l0 251.49c0,21.9 23.52,43.98 45.15,43.98l386.56 0c21.63,0 45.15,-22.08 45.15,-43.98l0 -251.49c0,-21.9 -23.52,-43.99 -45.15,-43.99l-386.56 0c-21.63,0 -45.15,22.09 -45.15,43.99zm52.76 -14.23l371.58 0 -136.65 126.41c-3.48,3.52 -7.55,6.3 -11.08,9.88l-21.85 20.3c-20.9,16.41 -26.66,5.15 -42.8,-9.77l-22.19 -19.8c-17.66,-17.76 -37.63,-33.14 -55.31,-50.65l-44.26 -40.77c-1.75,-1.78 -3.37,-3.57 -5.17,-5.23 -1.83,-1.7 -3.89,-2.94 -5.83,-4.65l-26.44 -25.72zm-18.96 24.89c2.6,1.75 4.08,3.69 6.39,5.64 18.85,15.94 36.6,33.45 54.73,50.21 2.05,1.9 4.36,3.31 6.43,5.21l79.21 73.19c8.59,6.86 16.13,14.92 24.38,22.26 10.1,9 21.06,13.04 34.65,13.04 26.32,0 37.87,-20.77 56.07,-34.81l97.8 -89.65c4.44,-3.45 7.68,-7.91 12.01,-11.37 4.34,-3.46 7.91,-7.33 11.96,-11.08 2.07,-1.9 4.38,-3.3 6.42,-5.2l12.16 -11.26c2.59,-2.08 4.29,-4.33 7.08,-6.18l4.02 -2.69 0.05 236.59c0,10.49 -6.25,21.16 -17.78,21.16l-381.89 0c-10.64,0 -17.6,-9.97 -17.78,-19.98l0.06 -100.2c0.03,-44.25 0,-88.48 0,-132.73l0 -4.84 4.03 2.69z"/>
  <path fill="#454545" d="M3148.39 -366.81c-36.37,-36.41 -84.73,-56.48 -136.24,-56.49 -106.16,0 -192.55,86.38 -192.6,192.59 -0.02,33.94 8.86,67.07 25.72,96.29l-27.34 99.79 102.09 -26.79c28.13,15.36 59.8,23.44 92.03,23.45l0.08 0c106.14,0 192.55,-86.39 192.6,-192.6 0.03,-51.45 -19.98,-99.86 -56.34,-136.24zm-136.24 296.31l-0.07 0c-28.73,0 -56.89,-7.72 -81.47,-22.32l-5.85 -3.46 -60.58 15.89 16.18 -59.08 -3.81 -6.06c-16.03,-25.49 -24.48,-54.95 -24.47,-85.18 0.04,-88.27 71.86,-160.07 160.15,-160.07 42.75,0 82.95,16.68 113.17,46.93 30.21,30.27 46.85,70.48 46.83,113.25 -0.05,88.29 -71.85,160.1 -160.08,160.1zm87.8 -119.89c-4.81,-2.41 -28.46,-14.06 -32.89,-15.66 -4.4,-1.6 -7.61,-2.41 -10.83,2.4 -3.22,4.81 -12.42,15.66 -15.24,18.88 -2.8,3.21 -5.62,3.61 -10.43,1.2 -4.81,-2.41 -20.32,-7.48 -38.7,-23.89 -14.3,-12.76 -23.97,-28.52 -26.77,-33.34 -2.8,-4.83 -0.29,-7.42 2.1,-9.82 2.17,-2.15 4.81,-5.62 7.23,-8.44 2.42,-2.78 3.22,-4.79 4.84,-8.01 1.6,-3.21 0.81,-6.03 -0.41,-8.44 -1.21,-2.4 -10.83,-26.09 -14.83,-35.72 -3.9,-9.4 -7.87,-8.12 -10.84,-8.27 -2.8,-0.14 -6,-0.16 -9.23,-0.16 -3.2,0 -8.42,1.2 -12.82,6.03 -4.41,4.82 -16.84,16.47 -16.84,40.14 0,23.7 17.24,46.58 19.64,49.79 2.4,3.2 33.93,51.82 82.2,72.66 11.48,4.96 20.46,7.92 27.44,10.14 11.53,3.66 22.02,3.14 30.31,1.91 9.25,-1.37 28.47,-11.64 32.49,-22.88 4.01,-11.24 4.01,-20.89 2.8,-22.88 -1.2,-2.03 -4.41,-3.23 -9.22,-5.64z"/>
 </g>
</svg>
