<?xml version="1.0" encoding="UTF-8"?>
<!DOCTYPE svg PUBLIC "-//W3C//DTD SVG 1.1//EN" "http://www.w3.org/Graphics/SVG/1.1/DTD/svg11.dtd">
<!-- Creator: CorelDRAW 2021 (64-Bit) -->
<svg xmlns="http://www.w3.org/2000/svg" xml:space="preserve" width="531px" height="378px" version="1.1" shape-rendering="geometricPrecision" text-rendering="geometricPrecision" image-rendering="optimizeQuality" fill-rule="evenodd" clip-rule="evenodd"
viewBox="0 0 531 377.6"
 xmlns:xlink="http://www.w3.org/1999/xlink"
 xmlns:xodm="http://www.corel.com/coreldraw/odm/2003">
 <g id="Layer_x0020_1">
  <metadata id="CorelCorpID_0Corel-Layer"/>
  <path fill="#454545" d="M27.3 63.21l0 251.23c0,21.88 23.49,43.94 45.1,43.94l386.15 0c21.61,0 45.1,-22.06 45.1,-43.94l0 -251.23c0,-21.87 -23.49,-43.94 -45.1,-43.94l-386.15 0c-21.61,0 -45.1,22.07 -45.1,43.94zm52.7 -14.21l371.19 0 -136.51 126.28c-3.47,3.51 -7.54,6.29 -11.06,9.87l-21.83 20.28c-20.88,16.39 -26.63,5.14 -42.75,-9.76l-22.17 -19.78c-17.64,-17.74 -37.6,-33.11 -55.25,-50.6l-44.21 -40.73c-1.75,-1.78 -3.38,-3.57 -5.17,-5.23 -1.83,-1.69 -3.89,-2.93 -5.82,-4.64l-26.42 -25.69zm-18.94 24.87c2.6,1.74 4.07,3.68 6.38,5.63 18.84,15.92 36.57,33.41 54.67,50.15 2.06,1.91 4.36,3.31 6.43,5.21l79.13 73.11c8.57,6.85 16.11,14.9 24.35,22.24 10.09,8.99 21.03,13.02 34.62,13.02 26.28,0 37.82,-20.74 56.01,-34.76l97.69 -89.56c4.44,-3.45 7.67,-7.91 12,-11.36 4.33,-3.46 7.9,-7.32 11.95,-11.06 2.06,-1.91 4.37,-3.31 6.41,-5.2l12.15 -11.25c2.58,-2.08 4.28,-4.32 7.06,-6.17l4.02 -2.69 0.05 236.34c0,10.48 -6.24,21.13 -17.76,21.13l-381.49 0c-10.62,0 -17.57,-9.96 -17.76,-19.95l0.06 -100.1c0.03,-44.2 0,-88.39 0,-132.59l0 -4.84 4.03 2.7z"/>
  <path fill="#454545" d="M3221.76 -366.43c-36.33,-36.36 -84.64,-56.41 -136.1,-56.42 -106.04,0 -192.35,86.29 -192.4,192.38 -0.01,33.91 8.85,67.01 25.69,96.19l-27.3 99.69 101.98 -26.76c28.1,15.34 59.74,23.41 91.93,23.42l0.08 0c106.03,0 192.35,-86.3 192.4,-192.4 0.03,-51.39 -19.96,-99.75 -56.28,-136.1zm-136.1 296l-0.06 0c-28.7,0 -56.83,-7.71 -81.39,-22.29l-5.84 -3.46 -60.52 15.87 16.16 -59.02 -3.8 -6.05c-16.02,-25.46 -24.46,-54.89 -24.44,-85.09 0.03,-88.17 71.77,-159.9 159.97,-159.9 42.71,0 82.86,16.66 113.05,46.88 30.19,30.24 46.8,70.41 46.78,113.13 -0.05,88.2 -71.77,159.93 -159.91,159.93zm87.71 -119.76c-4.8,-2.41 -28.44,-14.04 -32.85,-15.64 -4.4,-1.6 -7.61,-2.41 -10.82,2.39 -3.22,4.81 -12.41,15.65 -15.23,18.87 -2.8,3.2 -5.61,3.6 -10.42,1.19 -4.8,-2.41 -20.3,-7.47 -38.66,-23.86 -14.28,-12.75 -23.94,-28.49 -26.74,-33.31 -2.8,-4.82 -0.29,-7.41 2.1,-9.8 2.17,-2.15 4.81,-5.62 7.22,-8.43 2.42,-2.78 3.22,-4.79 4.84,-8.01 1.6,-3.2 0.8,-6.02 -0.41,-8.43 -1.21,-2.39 -10.82,-26.06 -14.82,-35.69 -3.9,-9.38 -7.86,-8.1 -10.82,-8.25 -2.8,-0.14 -6,-0.16 -9.22,-0.16 -3.2,0 -8.41,1.2 -12.81,6.02 -4.4,4.82 -16.83,16.45 -16.83,40.1 0,23.67 17.23,46.53 19.63,49.73 2.39,3.21 33.89,51.77 82.11,72.59 11.47,4.95 20.43,7.91 27.41,10.13 11.51,3.66 22,3.14 30.28,1.91 9.24,-1.38 28.44,-11.63 32.45,-22.86 4.01,-11.23 4.01,-20.87 2.8,-22.86 -1.2,-2.02 -4.4,-3.22 -9.21,-5.63z"/>
 </g>
</svg>
