<?xml version="1.0" encoding="UTF-8"?>
<!DOCTYPE svg PUBLIC "-//W3C//DTD SVG 1.1//EN" "http://www.w3.org/Graphics/SVG/1.1/DTD/svg11.dtd">
<!-- Creator: CorelDRAW 2021 (64-Bit) -->
<svg xmlns="http://www.w3.org/2000/svg" xml:space="preserve" width="55.9634mm" height="7.2026mm" version="1.1" shape-rendering="geometricPrecision" text-rendering="geometricPrecision" image-rendering="optimizeQuality" fill-rule="evenodd" clip-rule="evenodd"
viewBox="0 0 26808.26 3450.28"
 xmlns:xlink="http://www.w3.org/1999/xlink"
 xmlns:xodm="http://www.corel.com/coreldraw/odm/2003">
 <g id="Layer_x0020_1">
  <metadata id="CorelCorpID_0Corel-Layer"/>
  <path fill="#4789D9" d="M4625.29 2231.57l0 1089.85 21821.3 0 128.76 0 2.63 0 101.46 0 0 -101.36 0 -2.63 0 -128.86 0 -2726.89 0 -128.81 0 -2.63 0 -101.46 -101.46 0 -2.63 0 -128.76 0 -21821.3 0 0 1089.89 506.53 506.38 -506.53 506.53zm22182.97 -1998.71l0 -232.86 -232.91 0 -22078.83 0 -4263.62 0 -232.91 0 0 232.86 0 2984.56 0 232.86 232.91 0 4263.62 0 22078.83 0 232.91 0 0 -232.86 0 -2984.56z"/>
 </g>
</svg>
