<?xml version="1.0" encoding="UTF-8"?>
<!DOCTYPE svg PUBLIC "-//W3C//DTD SVG 1.1//EN" "http://www.w3.org/Graphics/SVG/1.1/DTD/svg11.dtd">
<!-- Creator: CorelDRAW 2021 (64-Bit) -->
<svg xmlns="http://www.w3.org/2000/svg" xml:space="preserve" width="22.5298mm" height="23.0722mm" version="1.1" shape-rendering="geometricPrecision" text-rendering="geometricPrecision" image-rendering="optimizeQuality" fill-rule="evenodd" clip-rule="evenodd"
viewBox="0 0 1439.15 1473.8"
 xmlns:xlink="http://www.w3.org/1999/xlink"
 xmlns:xodm="http://www.corel.com/coreldraw/odm/2003">
 <g id="Layer_x0020_1">
  <metadata id="CorelCorpID_0Corel-Layer"/>
  <g id="_1987600304992">
   <path fill="#0056C7" d="M1119.9 492.07c0,-24 54.7,-34.5 54.7,11.52l0 118.03 -54.7 0 0 -129.55zm-51.82 -273.51c-14.62,3.4 -31.34,11.78 -45.69,17.66l-322.83 134.93c-9.38,0 -350.07,-151.05 -368.5,-152.58 4.98,-6.81 12.36,-7.89 20.57,-11.1l347.9 -145.88c4.32,-0.04 79.32,31.74 91.18,37.04l186.48 78.38c17.16,6.82 29.28,12.95 46.45,19.77 8.57,3.4 14.24,5.71 22.4,9.28 10.32,4.51 16.08,4.38 22.04,12.51zm-843.54 -5.76c0,30.66 31.17,37.43 76.92,55.52 16.85,6.66 30.07,13.2 46.45,19.78 13.29,5.34 35.7,16.53 49.38,19.71 0,20.64 -1.87,224.6 1.11,234.96 6.3,21.93 34.11,20.8 57,23.62 68.6,8.44 126.82,24.49 187.43,48.64 50.32,20.06 49.61,30.72 83.62,13.31l87.17 -33.75c40.71,-13.54 83.3,-21.34 130.16,-28.19 62.62,-9.15 60.98,2.3 60.98,-97.37 0,-53.74 0,-107.48 0,-161.22l112.28 -46.06 0 155.47c-15.02,3.49 -31.62,17.87 -39.97,29.12 -9.86,13.25 -17.6,29.03 -17.6,51.49l0 152.58c0,14.55 10.39,28.79 25.91,28.79l120.92 0c21.4,0 28.79,-21.32 28.79,-43.18l0 -115.16c0,-61.46 -17.17,-82.26 -57.58,-103.64 0,-43.56 7.16,-191.35 -5.74,-215.95 -6.2,-11.83 -20.56,-15.25 -33.77,-20.94l-356.81 -149.88c-93.08,-41.53 -71.93,-37.21 -144.52,-7.24l-301.91 127.07c-21.1,9.05 -39.96,16.9 -60.84,25.53 -18.94,7.81 -49.36,16 -49.36,37.02z"/>
   <path fill="#0056C7" d="M160.49 1003.82l312.36 310.92 -89.28 87.77 -310.91 -309.45 87.83 -89.24zm226.49 469.98l-7.26 0c-8.57,-1.39 -17.59,-7.7 -29.24,-19.43l-166.98 -166.98c-32.37,-32.37 -62.63,-62.63 -95.01,-95.01 -102.82,-102.82 -109.69,-90.4 -53.26,-146.83 20.13,-20.13 107.7,-113 120.2,-113 31.01,0 23.68,9.97 43.18,23.03 80.59,-152.31 268.66,-231.24 437.58,-155.43 33.91,15.22 27.95,20.47 60.42,20.2 64.06,-0.54 185.4,-7.68 223.5,15.45 47.7,28.94 71.73,78.27 58.71,134.18 14.62,-9.79 116.85,-109.53 140.37,-130.25 6.14,-5.4 8.2,-5.76 14.41,-11.5 4.94,-4.57 8.1,-8.13 12.92,-13l55.65 -50.87c37.25,-28.77 64.02,-81.32 139.28,-70.71 83.14,11.72 127.84,109.97 74.63,180.98l-196.09 192.57c-8.56,8.48 -14.39,11.27 -23.13,20.06 -18.59,18.68 -46.46,45.85 -68.35,61.2 -191.97,134.6 -280.7,81.84 -459.83,104.45 -74.5,9.4 -89.4,22.21 -138.98,33.76 5.04,7.53 14.39,13.38 14.39,25.92 0,20.53 -56.77,69.73 -72.69,85.65 -45.47,45.47 -65.4,72.51 -84.43,75.57zm96.67 -233.2c-14.9,-9.98 -238.96,-238.77 -238.96,-238.95 0,-29.89 60.28,-94.08 90.44,-116.85 86.21,-65.06 206.66,-70.41 303.02,-17.52 21.26,11.67 11.8,10.8 44.12,10.58 34.12,-0.22 72.34,-3.28 104.87,1.64 32.49,4.92 78.49,-5.65 102.39,7.01 52.83,27.99 43.62,108.37 -26.54,117.33l-99.66 6.87c-47.45,5.02 -81.05,-2.38 -81.05,36.99 0,37.8 50.46,23.39 77.71,23.02l163.01 -12.61c34.38,-5.34 60.27,-17.95 83.39,-34.65l123.79 -112.28c11.86,-9.15 18.35,-18.62 29.31,-28.27l123.6 -112.48c52.42,-44.55 95.91,-3.58 95.91,38.33 0,33.8 -41.07,59.78 -72.69,91.41 -14.62,14.61 -27.2,27.05 -41.74,41.76l-126.69 120.9c-56.35,56.45 -133.93,98.05 -215.47,115.61 -131.24,28.25 -201.36,-17.68 -406.77,50.99 -10.99,3.67 -19.9,8.36 -32,11.18z"/>
  </g>
 </g>
</svg>
