<?xml version="1.0" encoding="UTF-8"?>
<!DOCTYPE svg PUBLIC "-//W3C//DTD SVG 1.1//EN" "http://www.w3.org/Graphics/SVG/1.1/DTD/svg11.dtd">
<!-- Creator: CorelDRAW 2021 (64-Bit) -->
<svg xmlns="http://www.w3.org/2000/svg" xml:space="preserve" width="8.382mm" height="10.3293mm" version="1.1" shape-rendering="geometricPrecision" text-rendering="geometricPrecision" image-rendering="optimizeQuality" fill-rule="evenodd" clip-rule="evenodd"
viewBox="0 0 63.28 77.72"
 xmlns:xlink="http://www.w3.org/1999/xlink"
 xmlns:xodm="http://www.corel.com/coreldraw/odm/2003">
 <g id="Layer_x0020_1">
  <metadata id="CorelCorpID_0Corel-Layer"/>
  <g id="_1984191792464">
   <path fill="#0056C7" d="M49.52 31.47c0,3.81 -1.5,7.31 -3.75,10.33l-0.01 0.01 -0.96 1.11c-0.17,0.18 -0.31,0.39 -0.49,0.56 -1.31,1.31 -3.39,2.83 -5.1,3.56 -1.04,0.44 -2.07,0.86 -3.17,1.13 -0.81,0.2 -1.63,0.37 -2.46,0.44 -0.81,0.07 -1.62,0.07 -2.42,0.07l-0.09 0c-2.22,0 -5,-0.69 -6.99,-1.68 -0.73,-0.36 -1.46,-0.74 -2.14,-1.2 -0.62,-0.41 -1.19,-0.88 -1.78,-1.34 -1.13,-0.88 -2.23,-2.19 -3.07,-3.35 -0.31,-0.43 -0.59,-0.88 -0.86,-1.33 -0.27,-0.46 -0.53,-0.92 -0.74,-1.41 -0.55,-1.28 -1.05,-2.58 -1.32,-3.95 -0.28,-1.38 -0.33,-2.8 -0.33,-4.2 0,-2.22 0.69,-5 1.67,-6.99 0.46,-0.94 0.99,-1.85 1.6,-2.71 0.16,-0.22 0.31,-0.44 0.48,-0.65 0.48,-0.58 0.97,-1.15 1.5,-1.68 0.53,-0.54 1.11,-1.03 1.7,-1.5 2.9,-2.32 6.63,-3.57 10.33,-3.69l1.22 0c1.27,0.04 2.53,0.22 3.76,0.53 1.59,0.4 3.18,1.06 4.59,1.9 1.14,0.68 2.1,1.4 3.07,2.3 0.36,0.34 0.73,0.67 1.07,1.04 0.36,0.38 0.68,0.79 1.01,1.2 0.79,0.98 1.49,2.2 2.04,3.33 1.3,2.72 1.65,5.18 1.65,8.17zm-8.03 10.83c-0.34,-0.16 -0.68,-0.32 -1.02,-0.47 -0.31,-0.13 -0.68,-0.3 -1.01,-0.4 -0.15,0.32 -0.27,0.66 -0.42,0.98l-0.01 0.01 -0.61 1.11 -0 0.01c-0.23,0.38 -0.47,0.75 -0.73,1.12 0.07,-0.03 0.14,-0.06 0.21,-0.1 0.55,-0.26 1.08,-0.55 1.6,-0.86 0.59,-0.35 1.46,-0.9 1.99,-1.4zm-19.59 -0.01c0.07,0.05 0.14,0.11 0.2,0.16 0.85,0.76 2.39,1.7 3.57,2.23 -0,-0 -0,-0.01 -0.01,-0.01 -0.27,-0.37 -0.52,-0.77 -0.75,-1.17 -0.25,-0.42 -0.47,-0.85 -0.66,-1.29 -0.11,-0.26 -0.22,-0.52 -0.35,-0.77 -0.33,0.1 -0.7,0.26 -1,0.39 -0.34,0.15 -0.67,0.3 -1,0.46zm11.16 3.2c1.12,-0.62 2.47,-2.49 3.04,-3.52 0.22,-0.4 0.49,-0.88 0.66,-1.32 -0.22,-0.05 -0.45,-0.09 -0.67,-0.13 -0.97,-0.19 -2.03,-0.33 -3.03,-0.36l0 5.33zm-6.43 -4.86c0.06,0.15 0.12,0.3 0.18,0.44 0.13,0.31 0.28,0.61 0.45,0.9 0.57,1.03 1.92,2.9 3.04,3.52l0 -5.32c-0.62,0.03 -1.26,0.09 -1.88,0.17 -0.55,0.07 -1.24,0.14 -1.79,0.29zm-1.01 -2.61c0.77,-0.17 1.54,-0.32 2.31,-0.44 0.78,-0.12 1.57,-0.22 2.36,-0.25l0 -5.1 -5.64 0c0.02,1.51 0.32,3.22 0.67,4.68 0.06,0.25 0.12,0.49 0.19,0.73 0.03,0.12 0.06,0.24 0.1,0.37zm12.11 -0c0.04,-0.13 0.07,-0.27 0.1,-0.41 0.45,-1.78 0.82,-3.53 0.86,-5.37l-5.63 0 0 5.1c0.79,0.02 1.59,0.13 2.37,0.25 0.77,0.12 1.54,0.27 2.31,0.44zm5.75 2.19c0.19,-0.21 0.39,-0.51 0.54,-0.74 0.18,-0.26 0.36,-0.54 0.53,-0.81 1.05,-1.75 2.02,-4.34 2.13,-6.42l-5.16 0c-0.02,0.97 -0.14,1.95 -0.29,2.91 -0.17,1.07 -0.39,2.13 -0.67,3.18 -0.04,0.16 -0.11,0.31 -0.15,0.47 0.38,0.12 0.75,0.29 1.11,0.45 0.46,0.21 0.93,0.42 1.38,0.65 0.19,0.1 0.38,0.22 0.58,0.32zm-26.8 -7.97c0.08,1.43 0.6,3.18 1.13,4.49 0.3,0.74 1.45,2.86 2.05,3.48l3.07 -1.36 -0.35 -1.4c-0.23,-0.9 -0.38,-1.82 -0.51,-2.74 -0.11,-0.82 -0.21,-1.64 -0.23,-2.46l-5.16 0zm21.07 -8.55c-0.75,0.17 -1.5,0.32 -2.25,0.43 -0.81,0.11 -1.62,0.23 -2.44,0.26l0 5.1 5.63 0c-0.01,-0.34 -0.04,-0.68 -0.08,-1.01 -0.06,-0.63 -0.14,-1.26 -0.23,-1.88 -0.09,-0.62 -0.2,-1.25 -0.34,-1.86 -0.08,-0.34 -0.16,-0.7 -0.29,-1.03zm-13.09 5.79l5.64 0 0 -5.1c-0.79,-0.02 -1.58,-0.13 -2.36,-0.25 -0.77,-0.12 -1.53,-0.26 -2.29,-0.43l-0.33 1.16c-0.12,0.5 -0.21,1.01 -0.3,1.51 -0.2,1.01 -0.34,2.07 -0.35,3.11zm18.83 -7.98c-0.22,0.1 -0.42,0.24 -0.63,0.34 -0.45,0.22 -0.9,0.43 -1.36,0.64 -0.35,0.15 -0.7,0.31 -1.06,0.43l0.34 1.36c0.23,0.9 0.38,1.82 0.51,2.74 0.11,0.82 0.21,1.64 0.23,2.46l5.16 0c-0.08,-1.43 -0.6,-3.18 -1.13,-4.49 -0.3,-0.73 -1.46,-2.88 -2.05,-3.49zm-20.54 1.37c-0.28,-0.12 -0.57,-0.22 -0.85,-0.33 -0.56,-0.22 -1.11,-0.45 -1.64,-0.72 -0.19,-0.1 -0.38,-0.22 -0.58,-0.32 -0.19,0.21 -0.39,0.51 -0.54,0.74 -0.18,0.27 -0.36,0.54 -0.53,0.82 -1.07,1.79 -2.03,4.3 -2.13,6.42l5.16 0c0.02,-0.55 0.1,-1.1 0.13,-1.65 0.07,-1.11 0.3,-2.22 0.56,-3.31 0.1,-0.43 0.21,-0.85 0.32,-1.27 0.03,-0.13 0.07,-0.25 0.1,-0.38zm13.82 -1.81c-0.33,-0.91 -1.11,-2.05 -1.64,-2.83 -0.16,-0.23 -0.34,-0.46 -0.54,-0.66 -0.11,-0.11 -0.21,-0.21 -0.32,-0.33 -0.03,-0.03 -0.06,-0.06 -0.09,-0.09 -0.01,-0.01 -0.02,-0.02 -0.03,-0.03 -0.01,-0.01 -0.02,-0.02 -0.03,-0.03 -0.3,-0.28 -0.69,-0.63 -1.07,-0.86l0 5.31c0.67,-0.02 1.33,-0.1 1.99,-0.19 0.37,-0.05 0.74,-0.11 1.1,-0.18 0.2,-0.04 0.41,-0.07 0.62,-0.12zm-10.18 0.01c0.55,0.15 1.26,0.23 1.8,0.3 0.63,0.08 1.27,0.14 1.91,0.17l0 -5.31c-0.72,0.43 -1.63,1.41 -2.08,2.01 -0.51,0.68 -1.31,1.98 -1.63,2.83zm11.12 -4.04c0.02,0.04 0.05,0.07 0.07,0.11l0.01 0.01 0.97 1.63c0.11,0.18 0.21,0.37 0.3,0.57 0.15,0.3 0.26,0.62 0.4,0.93 0.33,-0.1 0.7,-0.26 1.01,-0.39 0.34,-0.15 0.67,-0.3 1,-0.46 -0.07,-0.05 -0.14,-0.11 -0.2,-0.16 -0.89,-0.78 -2.36,-1.69 -3.55,-2.22zm-15.84 2.37c0.34,0.16 0.68,0.32 1.02,0.47 0.31,0.13 0.68,0.3 1.01,0.4 0.13,-0.27 0.24,-0.54 0.36,-0.81 0.2,-0.45 0.42,-0.88 0.67,-1.3 0.23,-0.38 0.46,-0.75 0.72,-1.1 -1.18,0.55 -2.97,1.57 -3.79,2.35z"/>
   <path fill="#0056C7" d="M19.74 2.27c-0.85,0.76 -1.21,1.27 -1.68,2.44 -0.52,1.29 -0.93,2.64 -1.54,3.9l-0.18 0.36 -0.4 0c-0.96,0 -1.91,-0.02 -2.86,-0.03 -0.67,-0.01 -1.35,-0.03 -2.02,-0.01 -0.44,0.01 -1.43,0.03 -1.77,0.37 -0.34,0.34 -0.36,1.33 -0.37,1.77 -0.02,0.67 0,1.35 0.01,2.02 0.02,0.95 0.03,1.91 0.03,2.86l0 0.4 -0.36 0.17c-1.08,0.52 -5.55,2.01 -6.04,2.87 -0.41,0.73 0.12,2.1 0.4,2.81 0.5,1.27 1.2,2.59 1.51,3.91l0.06 0.27 -0.15 0.23c-0.31,0.46 -0.77,0.9 -1.16,1.29 -0.5,0.48 -1,0.94 -1.5,1.42 -0.42,0.41 -1.72,1.69 -1.72,2.31 0,0.65 1.25,2.08 1.67,2.54 0.46,0.5 0.95,0.98 1.45,1.43 0.33,0.3 0.71,0.63 1.08,0.88l0.37 0.25 -0.1 0.43c-0.29,1.23 -0.81,2.39 -1.29,3.55 -0.37,0.87 -0.77,1.85 -0.9,2.81 1.42,1.46 4.31,2.74 6.2,3.18l0.5 0.12 0 0.51c0,1.99 -0.35,3.54 -1.32,5.27 -0.43,0.77 -0.92,1.5 -1.39,2.24 -0.59,0.92 -1.16,1.85 -1.69,2.81 -0.85,1.55 -1.69,3.09 -2.6,4.61 -0.58,0.97 -1.38,2.17 -1.65,3.27 -0.28,1.13 0.16,1.69 1.26,2.04 0.45,0.14 1.34,0.17 1.82,0.19 1.03,0.05 2.07,0.05 3.11,0.05 1.81,0 3.61,-0.05 5.41,-0.05l0.34 0 0.19 0.28c1.03,1.54 1.91,3.17 2.8,4.79 0.39,0.71 0.77,1.41 1.19,2.1 0.33,0.55 0.69,1.11 1.09,1.62 0.35,0.43 1,1.19 1.64,1.03 0.89,-0.21 1.83,-1.88 2.21,-2.61 0.51,-0.98 1.1,-1.94 1.66,-2.88 0.74,-1.23 1.48,-2.46 2.21,-3.7 0.69,-1.18 1.39,-2.36 2.02,-3.57 0.25,-0.47 0.49,-0.94 0.7,-1.43 0.13,-0.3 0.28,-0.65 0.36,-0.97l0.21 -0.9 0.77 0.52c0.52,0.35 1.08,0.75 1.63,1.05 0.17,0.09 0.43,0.23 0.63,0.21 0.22,-0.02 0.55,-0.21 0.73,-0.32 0.58,-0.33 1.14,-0.67 1.73,-0.98l0.74 -0.39 0.19 0.81c0.12,0.51 0.44,1.17 0.68,1.64 0.4,0.82 0.84,1.62 1.28,2.41 0.81,1.44 1.66,2.85 2.48,4.28 0.55,0.96 1.1,1.92 1.65,2.88 0.42,0.72 0.85,1.44 1.31,2.14 0.35,0.53 1.13,1.69 1.74,1.93 0.45,0.18 0.9,-0.31 1.16,-0.6 0.39,-0.43 0.73,-0.94 1.05,-1.43 0.47,-0.73 0.91,-1.48 1.34,-2.23 1.04,-1.82 2.02,-3.65 3.18,-5.39l0.19 -0.28 10.44 -0.14c0.61,-0.14 1.33,-0.42 1.52,-1.08 0.19,-0.67 -0.15,-1.62 -0.41,-2.23 -0.47,-1.1 -1.14,-2.18 -1.77,-3.2 -0.71,-1.14 -1.44,-2.28 -2.08,-3.45 -0.53,-0.96 -1.09,-1.89 -1.69,-2.81 -0.47,-0.74 -0.97,-1.47 -1.39,-2.24 -0.97,-1.74 -1.32,-3.28 -1.32,-5.27l0 -0.51 0.5 -0.12c1.24,-0.29 2.27,-0.91 3.44,-1.37 1.31,-0.52 1.88,-0.83 2.76,-1.8 -0.13,-0.96 -0.54,-1.94 -0.9,-2.82 -0.49,-1.16 -1.01,-2.32 -1.29,-3.55l-0.08 -0.34 4.56 -4.82c-0.79,-2.4 -3.04,-3.37 -4.39,-5.39l-0.15 -0.23 0.06 -0.27c0.14,-0.62 0.39,-1.23 0.63,-1.82 0.26,-0.64 0.54,-1.26 0.8,-1.9 0.25,-0.63 0.84,-2.12 0.58,-2.79 -0.25,-0.64 -1.91,-1.38 -2.51,-1.63 -0.65,-0.28 -1.32,-0.53 -1.99,-0.78 -0.55,-0.21 -1.12,-0.41 -1.65,-0.67l-0.36 -0.17 0 -0.4c0,-0.95 0.02,-1.91 0.03,-2.86 0.01,-0.67 0.03,-1.35 0.01,-2.02 -0.01,-0.44 -0.03,-1.43 -0.37,-1.77 -0.34,-0.34 -1.33,-0.36 -1.77,-0.37 -0.67,-0.02 -1.35,0 -2.02,0.01 -0.95,0.02 -1.91,0.03 -2.86,0.03l-0.4 0 -0.17 -0.36c-0.32,-0.68 -0.61,-1.37 -0.88,-2.07 -0.23,-0.58 -0.44,-1.17 -0.69,-1.74 -0.42,-0.98 -0.89,-1.79 -1.66,-2.52 -0.96,0.13 -1.94,0.54 -2.81,0.9 -1.16,0.49 -2.32,1.01 -3.55,1.29l-0.27 0.06 -0.23 -0.16c-0.46,-0.31 -0.9,-0.76 -1.29,-1.16 -0.48,-0.5 -0.94,-1 -1.42,-1.5 -0.41,-0.42 -1.69,-1.72 -2.31,-1.72 -0.62,0 -1.9,1.29 -2.31,1.72 -0.48,0.49 -0.95,1 -1.42,1.5 -0.38,0.4 -0.83,0.85 -1.29,1.16l-0.23 0.16 -0.27 -0.06c-1.23,-0.29 -2.39,-0.81 -3.55,-1.29 -0.88,-0.37 -1.86,-0.77 -2.82,-0.9zm12.25 2.38c0.39,0.26 0.76,0.64 1.09,0.98 0.38,0.39 0.76,0.8 1.15,1.19 0.37,0.37 1.32,1.31 1.89,1.31 1.08,0 1.9,-0.18 2.88,-0.64 0.97,-0.46 1.73,-0.89 2.81,-1.14l0.63 -0.14 0.15 0.62c0.28,1.2 0.88,2.31 1.35,3.45 0.39,0.94 0.78,1.63 1.82,1.83 0.58,0.11 1.24,0.1 1.83,0.1 0.96,-0.01 1.92,-0.05 2.89,-0.05l0.64 0 0 0.64c0,0.89 -0.03,1.78 -0.05,2.67 -0.01,0.6 -0.02,1.24 0.06,1.83 0.15,1.02 0.62,1.52 1.54,1.98 0.6,0.3 1.27,0.56 1.89,0.79 0.59,0.22 1.27,0.47 1.88,0.62l0.63 0.15 -0.15 0.63c-0.25,1.08 -0.68,1.83 -1.14,2.81 -0.46,0.97 -0.64,1.79 -0.64,2.88 0,0.56 0.94,1.51 1.31,1.89 0.39,0.39 0.8,0.76 1.19,1.15 0.34,0.33 0.71,0.7 0.98,1.09l0.24 0.36 -0.24 0.36c-0.53,0.8 -1.15,1.38 -1.88,2 -0.44,0.38 -0.99,0.81 -1.28,1.32 -0.34,0.6 -0.32,1.3 -0.21,1.96 0.25,1.44 0.99,3.09 1.62,4.4l0.28 0.58 -0.58 0.28c-1.15,0.55 -2.28,0.98 -3.48,1.4 -0.41,0.14 -1.17,0.38 -1.47,0.7 -0.33,0.34 -0.4,1.04 -0.43,1.48 -0.05,0.58 -0.06,1.17 -0.07,1.75 -0.01,0.87 -0.01,1.74 -0.01,2.61l0 0.64 -0.64 0c-0.88,0 -1.75,-0 -2.62,0 -0.58,0.01 -1.17,0.02 -1.75,0.06 -0.43,0.04 -1.14,0.1 -1.47,0.42 -0.31,0.3 -0.55,1.06 -0.69,1.47 -0.42,1.21 -0.85,2.34 -1.4,3.5l-0.22 0.46 -0.5 -0.12c-1.07,-0.25 -1.93,-0.69 -2.92,-1.13 -0.93,-0.41 -1.73,-0.65 -2.76,-0.65 -0.56,0 -1.51,0.94 -1.89,1.31 -0.39,0.39 -0.76,0.8 -1.15,1.19 -0.33,0.34 -0.7,0.71 -1.09,0.98l-0.36 0.24 -0.36 -0.24c-0.86,-0.58 -1.65,-1.5 -2.42,-2.22 -0.52,-0.49 -1.4,-1.26 -2.16,-1.26 -0.75,0 -1.71,0.4 -2.4,0.7 -0.91,0.39 -1.87,0.85 -2.83,1.08l-0.5 0.12 -0.22 -0.46c-0.55,-1.15 -0.98,-2.28 -1.4,-3.48 -0.14,-0.41 -0.38,-1.17 -0.7,-1.47 -0.34,-0.33 -1.04,-0.4 -1.48,-0.43 -0.58,-0.05 -1.17,-0.06 -1.75,-0.07 -0.87,-0.01 -1.74,-0.01 -2.61,-0.01l-0.64 0 0 -0.64c0,-0.87 0,-1.75 -0.01,-2.62 -0.01,-0.58 -0.02,-1.17 -0.06,-1.75 -0.04,-0.43 -0.1,-1.14 -0.42,-1.47 -0.3,-0.31 -1.06,-0.55 -1.47,-0.69 -1.21,-0.42 -2.34,-0.85 -3.5,-1.4l-0.58 -0.28 0.28 -0.58c0.63,-1.31 1.37,-2.95 1.62,-4.4 0.11,-0.66 0.14,-1.36 -0.21,-1.96 -0.29,-0.51 -0.84,-0.94 -1.28,-1.32 -0.72,-0.61 -1.34,-1.2 -1.88,-2l-0.24 -0.36 0.24 -0.36c0.45,-0.67 1,-1.21 1.6,-1.75 0.44,-0.39 0.95,-0.79 1.32,-1.24 0.33,-0.41 0.51,-0.82 0.55,-1.35 0.05,-0.82 -0.26,-1.76 -0.57,-2.51l-1.46 -3.56 0.73 -0.17c1.19,-0.28 2.59,-0.65 3.66,-1.26 0.6,-0.34 1.12,-0.77 1.41,-1.41 0.28,-0.62 0.32,-1.39 0.32,-2.06 0.01,-1.05 -0.06,-2.11 -0.06,-3.16l0 -0.64 0.64 0c1.04,0 2.07,0.07 3.1,0.07 0.68,0 1.44,-0.03 2.07,-0.31 0.65,-0.28 1.09,-0.8 1.44,-1.41 0.62,-1.07 1,-2.49 1.28,-3.69l0.14 -0.62 0.63 0.14c1.08,0.25 1.83,0.68 2.81,1.14 0.97,0.46 1.79,0.64 2.88,0.64 0.56,0 1.51,-0.94 1.89,-1.31 0.39,-0.39 0.76,-0.8 1.15,-1.19 0.33,-0.34 0.7,-0.71 1.09,-0.98l0.36 -0.24 0.36 0.24zm-6.01 55.36c-0.07,0.32 -0.23,0.68 -0.36,0.98 -0.21,0.47 -0.43,0.94 -0.66,1.4 -0.61,1.21 -1.26,2.4 -1.94,3.57 -0.69,1.18 -1.41,2.37 -2.18,3.5 -0.44,0.64 -1.2,1.73 -1.84,2.16l-0.59 0.4 -0.33 -0.63c-0.51,-0.96 -1.01,-1.93 -1.52,-2.89 -0.36,-0.68 -0.73,-1.37 -1.13,-2.03 -0.43,-0.71 -0.98,-1.56 -1.73,-1.97 -0.74,-0.4 -1.78,-0.44 -2.61,-0.45 -0.76,-0.01 -1.52,0.01 -2.29,0.03 -1.05,0.02 -2.11,0.04 -3.16,0.04l-1.2 0 0.67 -1c1.8,-2.69 3.38,-5.59 4.9,-8.46l0.18 -0.34 6.17 0 0.18 0.36c0.57,1.18 1.8,5.24 2.68,5.9 0.7,0.53 1.75,0.23 2.49,-0.03 1.17,-0.4 2.31,-1.01 3.52,-1.29l1 -0.23 -0.23 1zm12.07 -0.77c1.2,0.28 2.35,0.89 3.52,1.29 0.74,0.26 1.79,0.56 2.49,0.03 0.87,-0.66 2.11,-4.72 2.68,-5.9l0.17 -0.36 6.17 0 0.18 0.34c0.72,1.36 1.51,2.68 2.24,4.03 0.39,0.72 0.85,1.39 1.27,2.1 0.47,0.82 0.82,1.62 1.04,2.54l0.18 0.79 -0.81 0c-1.64,0 -3.27,-0.16 -4.91,-0.11 -1.01,0.03 -2.69,0.16 -3.42,0.96 -0.28,0.31 -0.57,0.79 -0.78,1.15 -0.37,0.61 -0.72,1.24 -1.07,1.87 -0.62,1.13 -1.2,2.27 -1.81,3.41l-0.33 0.63 -0.59 -0.4c-1.6,-1.07 -2.8,-3.89 -3.8,-5.56 -0.58,-0.96 -1.17,-1.9 -1.72,-2.87 -0.51,-0.9 -1.23,-2.17 -1.46,-3.17l-0.23 -1 1 0.23z"/>
  </g>
 </g>
</svg>
