<?xml version="1.0" encoding="UTF-8"?>
<!DOCTYPE svg PUBLIC "-//W3C//DTD SVG 1.1//EN" "http://www.w3.org/Graphics/SVG/1.1/DTD/svg11.dtd">
<!-- Creator: CorelDRAW 2021 (64-Bit) -->
<svg xmlns="http://www.w3.org/2000/svg" xml:space="preserve" width="18.3511mm" height="23.8789mm" version="1.1" shape-rendering="geometricPrecision" text-rendering="geometricPrecision" image-rendering="optimizeQuality" fill-rule="evenodd" clip-rule="evenodd"
viewBox="0 0 452.46 588.75"
 xmlns:xlink="http://www.w3.org/1999/xlink"
 xmlns:xodm="http://www.corel.com/coreldraw/odm/2003">
 <g id="Layer_x0020_1">
  <metadata id="CorelCorpID_0Corel-Layer"/>
  <path fill="#0056C7" d="M305.25 0c-4.65,0.92 -9.38,5.11 -12.56,8.32 -4.46,4.5 -8.95,8.96 -13.43,13.44 -5.25,5.25 -22.93,19.95 -22.93,27.53 0,3.58 1.34,7.34 3.61,10.11 3.02,3.69 7.34,4.16 11.84,4.16 2.72,0 4.89,-1.61 6.82,-3.37 2.75,-2.51 5.12,-5.47 8.24,-7.56l6.84 -4.58 0 72.13 -5.39 -1.25c-4.01,-0.93 -7.96,-2.86 -11.71,-4.55 -3.8,-1.72 -7.65,-2.85 -11.59,-4.17 -8.34,-2.79 -16.6,-5.06 -25.24,-6.73 -44.49,-8.55 -92.33,-2.59 -132.4,18.93 -32.97,17.7 -62.47,46.48 -80.69,79.2 -12.51,22.47 -20.72,46.11 -24.45,71.57 -8.71,59.34 8.78,116.15 48.51,160.95 1.05,1.19 2.13,2.21 3.34,3.22 1.12,0.94 2.18,1.79 3.04,3.01 2.37,3.37 2.1,8.82 2.05,12.74l-0.07 116.75c-0.01,15.11 5.48,18.91 20.14,18.91l168.06 0c7.57,0 9.62,-6.65 10.56,-13.05 1.26,-8.62 0.21,-17.12 0.21,-25.73l0 -4.4 76.76 0c11.1,0 20.71,-4.98 27.64,-13.54 7.8,-9.63 11.14,-22.35 11.14,-34.58l0 -56.92 62.75 0c4.54,0 10.8,-5.36 12.97,-9.07 3.41,-5.83 4.1,-11.07 1.89,-17.39 -2.29,-6.57 -7.08,-13.34 -10.55,-19.4l-37.62 -63.97c-3.64,-6.19 -1.29,-20.64 -0.52,-27.81 0.19,-1.81 0.01,-3.38 -0.25,-5.16 -0.4,-2.73 -0.7,-5.23 -0.69,-8.01 0.14,-37.42 -15.76,-74.38 -36.25,-105.05l-12.53 -16.1c-4.85,-5.02 -9.59,-10.1 -14.61,-14.98 -2.29,-2.22 -11.02,-10.59 -13.86,-11.35l-3.26 -0.87 0 -92.14 6.84 4.58c8.62,5.77 6.83,9.76 18.56,9.76 7.34,0 10.77,-7.9 10.77,-14.28 0,-4.17 -3.85,-8.75 -6.52,-11.63 -4.77,-5.16 -10.26,-9.75 -15.24,-14.73 -5.21,-5.21 -10.13,-10.87 -15.48,-15.91 -2.89,-2.72 -6.9,-6.2 -10.95,-7.02l-3.79 0zm-221.65 300.21c0,46.45 26.02,92.02 69.36,110.68 27.6,11.88 56.78,14.57 85.5,4.95 32.19,-10.78 55.03,-31.43 70.24,-61.59 5.48,-10.86 8.67,-21.52 10.37,-33.53 1.97,-13.95 1.99,-28.61 1.99,-42.69 0,-30.73 0,-61.47 0,-92.2l0 -8.24 6.84 4.58c18.31,12.26 38.38,58.01 43,79.45 1.39,6.46 2.69,12.91 3.45,19.48 0.82,7.12 1.01,14.27 1.01,21.43 0,5.71 -0.29,11.35 -1.07,17.01 -0.37,2.68 -1.04,5.69 -1.15,8.36 -0.09,2.14 0.4,3.85 1.22,5.82 1.76,4.22 4.5,8.65 6.87,12.56l21.59 36.96 0.03 0.07c4.48,8.29 9.61,16.2 14.02,24.54l3.41 6.45 -7.3 0c-12.45,0 -24.9,0 -37.35,0 -6.12,0 -13.46,-0.11 -19.47,1.02 -2.62,0.49 -5.56,1.31 -7.17,3.61 -1.87,2.69 -2.32,7.58 -2.53,10.74 -0.51,7.68 -0.28,15.71 -0.28,23.42 0,12.84 -0.01,25.67 0,38.51 0,5.11 0.21,11.65 -0.98,16.61 -1.18,4.89 -3.85,8.15 -8.65,9.82 -4.91,1.71 -11.89,1.66 -17.07,1.64 -10.07,-0.03 -20.14,-0.33 -30.22,-0.33 -12.85,0 -25.7,0.08 -38.55,-0.01 -4.1,-0.03 -9.72,0.21 -13.46,2.09 -2.39,1.2 -3.68,2.91 -4.5,5.43 -1.18,3.61 -1.24,8.38 -1.25,12.15 0,6.37 0.29,12.74 0.29,19.13l0 4.4 -4.4 0c-12.09,0 -24.09,-1.17 -36.18,-1.17l-104.76 0 0 -94.56 6.45 3.41c4.21,2.23 8.25,4.83 12.39,7.19 2.91,1.66 7.11,4.01 10.4,4.65 12.6,2.44 19.81,-14.08 11.84,-22.7 -1.41,-1.52 -7.49,-4.81 -9.51,-5.85 -55.52,-28.61 -89.46,-87.69 -91.04,-149.51 -0.8,-31.33 6.95,-62.68 22.79,-89.77 18.23,-31.17 45.54,-54.64 77.61,-70.83 34.69,-17.52 74.05,-20.7 111.74,-12.59 12.82,2.76 26.11,6.94 37.91,12.72 4.62,2.26 16.62,8.13 16.62,14.31l0 147.05c0,12.19 -3.4,24.76 -8.18,35.92 -8.87,20.73 -25.17,35.76 -45.25,45.47 -16.55,8.01 -35.64,9.99 -53.67,6.85 -17.79,-3.09 -35.01,-11.27 -47.78,-24.17 -14.19,-14.33 -24.17,-31.81 -27.31,-51.87 -2.7,-17.29 0.06,-35.13 7.24,-51.04 13.54,-30.01 43.28,-54.26 77.18,-54.26 9.93,0 21.7,0.32 31.33,3.09 2.09,0.6 4.02,1.37 6.07,2.08 1.19,0.42 2.18,0.67 3.46,0.67 12.29,0 19.19,-14.16 10.07,-23.13 -7.49,-7.37 -36.93,-10.09 -47.42,-10.09 -14.66,0 -33.23,4.51 -46.35,10.83 -8.41,4.05 -19.94,10.73 -26.85,16.94 -6.26,5.63 -12.59,11.43 -17.77,18.1 -5.43,7 -9.67,15.02 -13.66,22.9 -6.89,13.62 -11.19,31.73 -11.19,47.04zm70.02 2.33c0,43.31 51.92,65.33 82.69,34.56 30.53,-30.53 8.38,-82.68 -34.56,-82.68 -26.09,0 -48.12,22.03 -48.12,48.12zm50.46 -20.74c24.44,0 27.89,42.64 -2.33,42.64 -25.8,0 -30.79,-42.64 2.33,-42.64z"/>
 </g>
</svg>
