<?xml version="1.0" encoding="UTF-8"?>
<!DOCTYPE svg PUBLIC "-//W3C//DTD SVG 1.1//EN" "http://www.w3.org/Graphics/SVG/1.1/DTD/svg11.dtd">
<!-- Creator: CorelDRAW 2021 (64-Bit) -->
<svg xmlns="http://www.w3.org/2000/svg" xml:space="preserve" width="25.9477mm" height="25.9477mm" version="1.1" shape-rendering="geometricPrecision" text-rendering="geometricPrecision" image-rendering="optimizeQuality" fill-rule="evenodd" clip-rule="evenodd"
viewBox="0 0 742.41 742.41"
 xmlns:xlink="http://www.w3.org/1999/xlink"
 xmlns:xodm="http://www.corel.com/coreldraw/odm/2003">
 <g id="Layer_x0020_1">
  <metadata id="CorelCorpID_0Corel-Layer"/>
  <g id="_1980803262272">
   <path fill="#3A96FF" d="M100.33 0l541.75 0c55.18,0 100.33,45.15 100.33,100.33l0 541.75c0,55.18 -45.15,100.33 -100.33,100.33l-541.75 0c-55.18,0 -100.33,-45.15 -100.33,-100.33l0 -541.75c0,-55.18 45.15,-100.33 100.33,-100.33zm-60.07 351.08l310.82 0 0 -310.82 -250.75 0c-33.04,0 -60.07,27.03 -60.07,60.07l0 250.75zm351.08 0l310.82 0 0 -250.75c0,-33.04 -27.03,-60.07 -60.07,-60.07l-250.75 0 0 310.82zm310.82 40.25l-310.82 0 0 310.82 250.75 0c33.04,0 60.07,-27.03 60.07,-60.07l0 -250.75zm-351.08 0l-310.82 0 0 250.75c0,33.04 27.03,60.07 60.07,60.07l250.75 0 0 -310.82z"/>
   <rect fill="#3A96FF" transform="matrix(1.13016E-15 -0.182932 0.059673 6.77505E-15 464.671 215.794)" width="220.06" height="2750.72" rx="110.03" ry="110.03"/>
   <path fill="#3A96FF" d="M277.74 195.67c0,-11.07 -9.06,-20.13 -20.13,-20.13l-41.82 0 0 -41.82c0,-11.07 -9.06,-20.13 -20.13,-20.13 -11.07,0 -20.13,9.06 -20.13,20.13l0 41.82 -41.82 0c-11.07,0 -20.13,9.06 -20.13,20.13 0,11.07 9.06,20.13 20.13,20.13l41.82 0 0 41.82c0,11.07 9.06,20.13 20.13,20.13 11.07,0 20.13,-9.06 20.13,-20.13l0 -41.82 41.82 0c11.07,0 20.13,-9.06 20.13,-20.13z"/>
   <path fill="#3A96FF" d="M464.67 503.23c0,11.07 9.06,20.13 20.13,20.13l123.89 0c11.07,0 20.13,-9.06 20.13,-20.13 0,-11.07 -9.06,-20.13 -20.13,-20.13l-123.89 0c-11.07,0 -20.13,9.06 -20.13,20.13zm0 82.88c0,11.07 9.06,20.13 20.13,20.13l123.89 0c11.07,0 20.13,-9.06 20.13,-20.13 0,-11.07 -9.06,-20.13 -20.13,-20.13l-123.89 0c-11.07,0 -20.13,9.06 -20.13,20.13z"/>
   <path fill="#3A96FF" d="M253.7 488.71c7.83,7.83 7.83,20.64 0,28.47l-29.57 29.57 29.57 29.57c7.83,7.83 7.83,20.63 0,28.46 -7.83,7.83 -20.64,7.83 -28.47,0l-29.57 -29.57 -29.57 29.57c-7.83,7.83 -20.64,7.83 -28.47,0 -7.83,-7.83 -7.83,-20.64 0,-28.46l29.57 -29.57 -29.57 -29.57c-7.83,-7.83 -7.83,-20.64 0,-28.47 7.83,-7.83 20.64,-7.83 28.47,0l29.57 29.57 29.57 -29.57c7.83,-7.83 20.64,-7.83 28.47,0z"/>
  </g>
 </g>
</svg>
