<?xml version="1.0" encoding="UTF-8"?>
<!DOCTYPE svg PUBLIC "-//W3C//DTD SVG 1.1//EN" "http://www.w3.org/Graphics/SVG/1.1/DTD/svg11.dtd">
<!-- Creator: CorelDRAW 2021 (64-Bit) -->
<svg xmlns="http://www.w3.org/2000/svg" xml:space="preserve" width="22.1375mm" height="25.2735mm" version="1.1" shape-rendering="geometricPrecision" text-rendering="geometricPrecision" image-rendering="optimizeQuality" fill-rule="evenodd" clip-rule="evenodd"
viewBox="0 0 343.7 392.39"
 xmlns:xlink="http://www.w3.org/1999/xlink"
 xmlns:xodm="http://www.corel.com/coreldraw/odm/2003">
 <g id="Layer_x0020_1">
  <metadata id="CorelCorpID_0Corel-Layer"/>
  <path fill="#3A96FF" d="M172.66 9.15l0 15.2 -118.12 0c-30.57,0 -54.54,22.55 -54.54,53.43l0 264.51c0,25.35 23.38,50.11 49,50.11l284.44 0c4.77,0 10.26,-4.25 10.26,-9.16l0 -347.52c0,-7.27 -5.53,-11.37 -12.48,-11.37l-42.86 0 0 -5.23c0,-6.53 0,-19.11 -9.16,-19.11l-98.5 0c-3.37,0 -8.05,5.9 -8.05,9.15zm21.63 120.47l0 -109.1 72.45 0 0 109.1 -7.68 -4.06c-9.51,-5.03 -20.16,-15.99 -30.71,-15.99 -4.24,0.46 -21.23,13.27 -26.37,15.99l-7.68 4.06zm-172.66 167.85l0 -205.32c0,-26.84 1.44,-46.18 35.11,-46.18l5.24 0 0 242.89 -5.24 0c-11.67,0 -16.88,-0.14 -27.62,5.02l-7.5 3.59zm61.98 -251.5l89.05 0 0 105.95c0,2.25 1.75,4.62 3.22,6.19 8.27,8.85 22.32,-4.58 29.6,-9.44 7.32,-4.88 14.82,-9.48 22.12,-14.38l2.91 -1.95 2.91 1.95c7.47,4.99 36.36,25.76 42.6,26.79 8.12,-0.01 12.35,-4.25 12.35,-12.48l0 -102.63 33.71 0 0 242.89 -238.47 0 0 -242.89zm-61.98 297.42c0,-11.27 0.97,-17.57 9.61,-25.72 5.82,-5.49 14.27,-8.29 22.19,-8.29l268.65 0 0 62.49 -266.44 0c-16.76,0 -34.01,-10.18 -34.01,-28.48z"/>
 </g>
</svg>
