<?xml version="1.0" encoding="UTF-8"?>
<!DOCTYPE svg PUBLIC "-//W3C//DTD SVG 1.1//EN" "http://www.w3.org/Graphics/SVG/1.1/DTD/svg11.dtd">
<!-- Creator: CorelDRAW 2021 (64-Bit) -->
<svg xmlns="http://www.w3.org/2000/svg" xml:space="preserve" width="24.5632mm" height="26.285mm" version="1.1" shape-rendering="geometricPrecision" text-rendering="geometricPrecision" image-rendering="optimizeQuality" fill-rule="evenodd" clip-rule="evenodd"
viewBox="0 0 4270.36 4569.7"
 xmlns:xlink="http://www.w3.org/1999/xlink"
 xmlns:xodm="http://www.corel.com/coreldraw/odm/2003">
 <g id="Layer_x0020_1">
  <metadata id="CorelCorpID_0Corel-Layer"/>
  <path fill="#3A96FF" d="M1333.88 733.46c40.66,-125.52 192.73,-372.56 270.95,-453.61 30.82,-31.94 63.11,-62.43 94.28,-94.02 195.5,-197.98 498.45,-247.23 739.32,-101.69 45.93,27.76 91.45,87.27 131.62,78.06 316.58,-72.88 532.53,255.63 371.73,497.06 -4.5,6.73 -20.71,27.29 -22.72,34.79 6.24,16.69 12.33,25.63 17.87,39.13 66.65,-4.09 136.13,-25.83 201.67,-35.12 285.62,-40.32 642.68,-40.18 887.71,131.07 406.38,284.04 231.17,834.16 7.34,1175.9l-200 281.88c18.71,29.5 43.38,54.87 64.85,82.3 75.5,96.49 139.59,205.27 202.09,310.55 112.99,190.39 169.23,388.44 169.23,610.95 0,333.85 -306.74,555.67 -614.48,590.66 -12.74,60.33 -52.78,117.35 -97.74,157.18 -78.36,69.42 -146.66,80.08 -247.32,80.08 -139.03,0 -275.43,-132.37 -298.92,-268.44 -25.02,-5.88 -47.95,-10.8 -73.78,-12.67 -41.29,127.12 -195.71,377.48 -275.78,458.27 -141.39,142.63 -282.86,273.9 -497.83,273.9 -253.62,0 -389.53,-96.28 -554.76,-274.74 -82.58,-89.1 -233.67,-326.44 -275.31,-457.51 -66.43,4.22 -135.71,25.85 -200.97,35.05 -287.01,40.61 -640.94,40.4 -887.64,-131 -241.15,-167.44 -285.62,-452.43 -214.48,-721.5 9.63,-36.51 46.14,-121.38 47.53,-146.11 -38.93,-64.15 -76.55,-103.56 -76.55,-193.98 0,-232.75 175.54,-383.92 400.14,-342.91 11.98,-18.01 25.49,-33.74 36.93,-51.76 -18.78,-30.2 -43.98,-55.91 -65.82,-83.81 -75.43,-96.57 -139.52,-205.27 -202,-310.57 -192.38,-324.22 -285.08,-810.6 74.25,-1061.73 197.03,-137.73 407.42,-151.65 640.82,-151.65 158.78,0 311.94,50.71 447.79,55.98zm1049.13 -428.27c-34.79,-24.11 -62.2,-44.47 -105.51,-62.97 -39,-16.62 -111.8,-35.47 -154.28,-30.48 -105.58,12.4 -191.41,49.32 -270.95,119.98 -101.62,90.33 -262.69,313.68 -309.6,457.16 101.49,26.11 201.46,63.87 299.22,101.36l298.43 121.71c32.35,-8.24 103.56,-45.79 134.27,-59.23 110.83,-48.64 251.18,-103.98 378.93,-142.65 -198.82,-13.3 -321.5,-136.68 -321.5,-347.63 0,-94.77 31.31,-106.47 50.99,-157.25zm157.6 180.95c10.12,65.12 57.37,118.67 126.98,113.96 158.99,-10.73 139.67,-247.93 -11.21,-237.69 -55.7,3.82 -124.36,68.17 -115.77,123.73zm-1958.09 1636.1c78.84,-62.41 147.36,-163.63 227.02,-227.29l129.97 -113.2c68.72,-61.18 148.17,-83.48 160.73,-179.57l154.42 -665.12 -129.21 -22.31c-183.66,-25.07 -293.72,-36.16 -480.28,-10.47 -399.04,55.08 -514.18,332.06 -376.11,690.07 16.15,41.99 36.23,81.12 54.45,122.06 34.86,78.15 79.54,152.76 126.22,223.49l132.81 182.34zm2432.92 -1184.98c12.47,54.59 39.06,110.5 52.78,164.32 34.58,135.99 65.19,264.29 88.4,402.99 8.45,50.49 2.83,138.26 44.61,169.99 93.18,70.6 176.65,149.84 266.03,224.53 75.57,63.18 145.27,162.31 221.54,222.86 20.78,-28.06 43.17,-54.73 63.53,-83.21 128.72,-179.42 243.38,-368.27 289.78,-586.98 69.77,-328.72 -107.3,-503.56 -424.09,-548.59 -114.03,-16.22 -212,-10.26 -326.09,-7.63 -51.2,1.18 -103.7,13.16 -154,20.24l-122.48 21.47zm-1681.41 540.23c8.87,-6.31 17.8,-12.9 27.43,-19.96 90.96,-66.31 206.87,-130.23 304.05,-188.86 57.3,-34.49 151.93,-85 218.91,-129.26 -25.83,-10.33 -51.39,-22.31 -75.57,-32.08l-348.52 -118.6 -72.34 255.49c-16.41,65.73 -42.73,156.55 -53.96,233.26zm1051.47 -339.19c67.07,44.54 162.81,95.6 220.51,130.37 97.32,58.62 213.09,122.55 304.12,188.86 9.77,7.13 18.85,13.86 27.85,20.22 -16.01,-118.58 -67.19,-278.2 -95.53,-379.97 -9.49,-34.37 -24.88,-70.39 -33.88,-106.21 -33.8,11.58 -70.38,19.68 -102.87,30.56l-320.2 116.17zm-1323.45 820.16c-2.23,2.14 -4.78,4.57 -7.68,7.34l-325.47 321.1 73.02 84.51c47.39,49.32 179.08,179.02 260.2,242.61 -2.56,-59.44 -7.96,-118.6 -7.96,-178.39l0 -300.66c0,-59.16 5.27,-117.7 7.89,-176.51zm2147.42 -0.35c2.64,58.95 7.98,117.63 7.98,176.86l0 281.88c0,66.03 -5.68,131.55 -8.26,197.3 39.64,-31.8 83,-75.71 110.78,-103.22 17.73,-17.54 34.7,-28.62 52.03,-42.96l172.15 -184.28c-10.67,-11.7 -22.51,-22.58 -32.49,-35.05 -90.89,-112.85 -196.89,-188.77 -299.2,-287.64 -1.04,-1.03 -2.09,-1.93 -2.99,-2.9zm-1946.38 327.19c0,156.43 14.2,312.78 26.95,468.58 6.57,80.56 23.21,59.3 96.92,114.72 93.58,70.32 675.02,446.14 748.66,449.11 64.01,-4.64 526.98,-297.6 611.58,-354 48.35,-32.21 96.37,-64.22 142.84,-99.13 8.88,-6.73 84.74,-59.79 88.82,-66.52 1.95,-5.46 2.63,-44.96 3.46,-53.41 34.09,-341.25 27.02,-587.95 -0.76,-928.02 -0.68,-9.14 -0.49,-37.76 -2.69,-45.17 -3.53,-4.36 -18.5,-13.72 -23.42,-17.25 -171.17,-123.1 -333.36,-229.1 -513.61,-338.21 -52.1,-31.52 -263.94,-154.69 -307.11,-163.21 -62.83,4.78 -525.73,297.67 -610.32,354.07 -48.35,32.21 -96.35,64.29 -142.84,99.13 -8.94,6.73 -84.74,59.72 -88.82,66.45 -1.93,5.55 -2.63,45.03 -3.46,53.48 -15.18,151.72 -26.18,306.97 -26.18,459.37zm242.05 -37.62c0,-299.89 293.17,-593.06 593.06,-593.06l75.17 0c299.89,0 593.08,293.17 593.08,593.06l0 75.17c0,299.96 -293.11,593.08 -593.08,593.08l-75.17 0c-299.96,0 -593.06,-293.11 -593.06,-593.08l0 -75.17zm208.94 37.62c0,51.89 21.26,131.83 41.64,179.43 112.5,263.11 483.4,318.88 681.12,112.99 27.78,-28.96 69.35,-88.61 84.11,-125.75 112.5,-282.63 -82.72,-588.35 -385.19,-588.35 -152.89,0 -325.1,104.33 -382.47,248.35 -19.19,48.16 -39.2,121.31 -39.2,173.33zm-1124.84 168.62c57.21,83.76 72.46,102.12 72.46,225.97 0,209.63 -201.95,337.72 -397.03,305.86 -28.76,72.95 -53.96,199.3 -53.96,267.35 0,230.48 158.99,347.48 364.81,399.86l272.53 31.38 404.92 -52.03 -98.37 -358.92c-15.87,-69.28 -28.13,-138 -39.71,-207.41 -5.95,-35.76 -11.07,-71.3 -15.99,-107.18 -5.62,-41.01 3.25,-38.58 -28.62,-62.76 -93.17,-70.6 -176.58,-149.84 -265.94,-224.53 -73.5,-61.37 -141.32,-156.76 -215.11,-217.59zm-379.22 210.33c4.02,14.55 11.16,36.02 17.04,50.23 18.29,38.72 67.07,68.52 110.22,65.46 163.63,-11.49 138.07,-247.65 -11.14,-237.6 -55.63,3.74 -124.43,68.17 -116.12,121.92zm1124.28 430.27c11.65,78.91 38.46,170.64 55.56,239.36l69.91 246.28c34.7,-12.2 72.6,-20.44 106.19,-31.66l322.34 -117.02c-76.69,-51.11 -226.32,-127.26 -285.27,-162.38l-268.72 -174.58zm1473.78 486.26c14.83,-66.31 51.13,-168.83 65.47,-218.78 21.68,-75.94 52.66,-181.03 64.43,-269.21 -9.01,6.43 -18.01,13.16 -27.85,20.29 -127.89,93.25 -271.42,172.91 -407.68,253.77 -21.35,12.6 -78.36,40.18 -117.58,63.6 26.41,10.59 52.38,22.93 77.59,32.82l345.62 117.51zm838.73 83.74c114.1,-9.14 250.09,-80.22 325.82,-161.13 219.73,-234.65 -35.41,-716.88 -189.41,-926.86l-94.07 -128.23c-78.84,62.36 -147.43,163.7 -227.16,227.36l-129.9 113.2c-43.71,38.87 -89.85,74.48 -135.85,110.71 -27.29,21.47 -20.15,32.84 -24.72,68.1l-56.05 312.17c-15.8,66.36 -32.15,131.69 -49.25,196.87 -12.2,46.7 -39.9,105.51 -51.13,155.32 9.77,1.6 19.33,3.2 29.78,4.16 39.29,-100.38 171.82,-177.49 274.83,-177.49 177.69,0 249.11,63.25 327.12,205.82zm-2102.74 116.86c2.9,9.91 5.89,19.75 10.47,29.31 7.82,16.76 16.62,32.91 24.86,49.46 17.33,34.58 34.93,68.72 54.8,101.98 73.85,123.24 162.67,246.49 284.46,326.63 142.51,93.79 298.5,92.98 439.48,-3.53 124.5,-85.27 205.96,-201.88 282.86,-329.14 27.99,-46.35 67.89,-117 87.64,-174.51 -101.22,-26.04 -201.39,-64.06 -298.57,-101.06 -73.5,-27.92 -210.81,-100.24 -277.68,-116.81 -36.63,-9.01 -121.92,39.43 -155.3,54.17 -131.69,58.14 -308.5,126.3 -453.01,163.49zm1672.68 10.4c4.02,14.55 11.14,36.02 17.04,50.23 18.29,38.8 67.05,68.45 110.29,65.47 159.27,-10.88 139.38,-248.23 -11.09,-237.62 -58.19,4.09 -125.1,64.5 -116.24,121.92z"/>
 </g>
</svg>
