<?xml version="1.0" encoding="UTF-8"?>
<!DOCTYPE svg PUBLIC "-//W3C//DTD SVG 1.1//EN" "http://www.w3.org/Graphics/SVG/1.1/DTD/svg11.dtd">
<!-- Creator: CorelDRAW 2021 (64-Bit) -->
<svg xmlns="http://www.w3.org/2000/svg" xml:space="preserve" width="25.1025mm" height="25.1037mm" version="1.1" shape-rendering="geometricPrecision" text-rendering="geometricPrecision" image-rendering="optimizeQuality" fill-rule="evenodd" clip-rule="evenodd"
viewBox="0 0 1045 1045.05"
 xmlns:xlink="http://www.w3.org/1999/xlink"
 xmlns:xodm="http://www.corel.com/coreldraw/odm/2003">
 <g id="Layer_x0020_1">
  <metadata id="CorelCorpID_0Corel-Layer"/>
  <path fill="#3A96FF" d="M-0 30.77l0 783.82c0,21.93 15.76,34.99 37.09,34.99l257.1 0 0 164.64c0,21.33 26.44,37.99 45.63,27.72l129.72 -85.65c49.25,-32.5 98.5,-64.96 147.17,-98.27 18.7,-12.79 44.06,-8.44 65.49,-8.44l308.89 0c26.89,0 53.9,-2.07 53.9,-34.99l0 -783.82c0,-15.18 -15.59,-30.77 -30.77,-30.77l-983.44 0c-15.19,0 -30.78,15.58 -30.78,30.77zm63.66 32.9l917.67 0 0 720.14 -351.65 0c-25.28,0 -40.09,14.93 -60.07,28.18l-211.75 140.37 0 -32.7c0,-20.4 4.71,-103.99 -3.3,-118.26 -8.46,-15.04 -24.02,-17.6 -40.09,-17.6l-250.8 0 0 -720.14zm534.81 582.95c-17.5,17.6 -11.3,45.77 12.56,53.3 25.03,7.91 57.89,-26.49 75.21,-41.04 3.52,-2.95 7.18,-5.31 10.45,-8.54 9.03,-8.93 29.53,-28.78 35.15,-39.4l8.16 -15.36 68.99 35.85c20.97,9.62 59.92,33.64 80.31,11.13 9.42,-10.4 10.55,-22.83 5.46,-35.63 -4.81,-12.09 -20.59,-17.37 -31.78,-21.42 -23.75,-8.63 -44.87,-21.03 -67.09,-32.78l-11.96 -6.3 3.06 -13.17c2.74,-11.76 10.27,-23.9 15.08,-35.1 15.39,-35.77 24.72,-63.2 33.59,-100.54l9.55 -58.14c1.19,-17.65 -0.61,-24.24 21.37,-29.83 13.82,-3.51 12.72,-1.21 22.09,-10.94 15.83,-16.46 10.77,-40.93 -9.84,-50.25 -14.43,-6.55 -90.9,-4.7 -110.48,-4.7l-17.55 0 0 -65.87c0,-30.24 -45.72,-44.24 -60.52,-12.89 -4.74,10.04 -5.24,48.97 -5.24,61.21l0 17.55 -17.55 0c-22.41,0 -89.84,-2.02 -107.26,3.25 -22.88,8.64 -27.64,41.85 -8.71,55.39 11.44,8.2 22.31,7.17 36.19,7.14l194.38 2.3 -0.4 17.73c-0.3,13.35 -3.78,29.96 -6.44,43.2 -2.6,12.99 -5.79,25.73 -9.35,38.47 -3.45,12.24 -7.43,24.67 -12.16,36.48l-19.02 47.41 -15.02 -4c-20.3,-5.39 -56.78,-55.55 -66.96,-74.5 -2.39,-4.45 -4.41,-8.68 -7.68,-12.56 -19.29,-23.01 -56.68,-9.41 -56.68,21.78 0,17.07 36.43,65.04 48.35,77.93 5.13,5.52 10.6,9.87 15.39,15.93 9.72,12.26 20.7,17.05 29.94,30.85l6.54 9.77 -6.54 9.77c-14.33,21.38 -35.2,39.59 -55.54,55.5l-28.07 21.01zm-451.39 -27.32c0,28.77 33.59,43.88 53.98,24.52 8.31,-7.9 19.34,-36.64 23.92,-47.82 3.28,-7.98 9.59,-19.06 11.45,-27.04l3.15 -13.57 172.87 0 3.17 13.59c1.84,7.96 8.18,19.04 11.45,27.04 7.43,18.16 19.14,56.03 42.89,56.03 36.16,0 41.21,-25.96 28.17,-55.2 -41.26,-92.56 -76.13,-188.04 -119.02,-279.84 -12.51,-26.79 -19.34,-71.13 -56.24,-71.13 -12.52,0 -21.15,9.29 -26.44,19.74 -3.85,7.6 -6.92,15.84 -10.22,23.89l-99.94 230.3c-8.89,19.97 -37.36,82.23 -39.18,99.51zm188.23 -226.55c14.93,10.92 26.34,53.9 34.9,71.73l12.08 25.15 -113.75 0 13.59 -25.74c6.65,-12.57 22.66,-46.23 25.41,-58.91l2.51 -30.66 25.26 18.43z"/>
 </g>
</svg>
