<?xml version="1.0" encoding="UTF-8"?>
<!DOCTYPE svg PUBLIC "-//W3C//DTD SVG 1.1//EN" "http://www.w3.org/Graphics/SVG/1.1/DTD/svg11.dtd">
<!-- Creator: CorelDRAW 2021 (64-Bit) -->
<svg xmlns="http://www.w3.org/2000/svg" xml:space="preserve" width="77.243mm" height="12.939mm" version="1.1" shape-rendering="geometricPrecision" text-rendering="geometricPrecision" image-rendering="optimizeQuality" fill-rule="evenodd" clip-rule="evenodd"
viewBox="0 0 7724.3 1293.9"
 xmlns:xlink="http://www.w3.org/1999/xlink"
 xmlns:xodm="http://www.corel.com/coreldraw/odm/2003">
 <g id="Layer_x0020_1">
  <metadata id="CorelCorpID_0Corel-Layer"/>
  <g id="_2494831022944">
   <g>
    <path fill="#EBECEE" fill-rule="nonzero" d="M1631.33 1125.15c0,8.57 1.01,16.41 3.04,23.51 2.03,7.1 4.85,13.47 8.46,19.11 3.61,5.64 7.83,10.54 12.68,14.71 4.85,4.17 10.09,7.61 15.73,10.37 5.64,2.82 11.5,4.85 17.64,6.2 6.15,1.36 12.29,2.03 18.43,2.03 6.71,0 13.19,-0.79 19.56,-2.42 6.37,-1.58 12.24,-4 17.59,-7.16 5.36,-3.21 10.09,-7.16 14.15,-11.89 4.06,-4.74 7.16,-10.26 9.24,-16.46l70.46 14.43c-2.48,8.79 -6.08,16.85 -10.87,24.29 -4.8,7.44 -10.38,14.21 -16.86,20.24 -6.48,6.09 -13.7,11.38 -21.64,15.95 -7.95,4.57 -16.41,8.45 -25.37,11.56 -8.96,3.1 -18.21,5.46 -27.85,7.1 -9.63,1.63 -19.33,2.48 -29.19,2.53 -13.98,0.06 -27.34,-1.07 -40.08,-3.49 -12.74,-2.42 -24.58,-6.09 -35.51,-10.99 -10.94,-4.91 -20.86,-11.11 -29.77,-18.6 -8.9,-7.44 -16.51,-16.18 -22.77,-26.1 -6.26,-9.87 -11.1,-21.08 -14.54,-33.49 -3.44,-12.45 -5.13,-26.15 -5.13,-41.09 0,-14.94 1.69,-28.63 5.13,-41.09 3.44,-12.4 8.28,-23.62 14.54,-33.48 6.26,-9.92 13.87,-18.66 22.77,-26.1 8.91,-7.5 18.83,-13.7 29.77,-18.6 10.93,-4.91 22.77,-8.57 35.51,-11 12.74,-2.42 26.1,-3.55 40.08,-3.49 9.86,0.06 19.56,0.9 29.19,2.54 9.64,1.63 18.89,4 27.85,7.1 8.96,3.1 17.42,6.99 25.37,11.55 7.94,4.57 15.16,9.87 21.64,15.96 6.48,6.03 12.06,12.79 16.8,20.23 4.73,7.39 8.4,15.5 10.93,24.3l-70.46 14.43c-2.08,-6.2 -5.18,-11.73 -9.24,-16.46 -4.06,-4.74 -8.79,-8.68 -14.15,-11.9 -5.35,-3.15 -11.22,-5.58 -17.59,-7.15 -6.37,-1.64 -12.85,-2.43 -19.56,-2.43 -6.14,0 -12.28,0.68 -18.43,2.03 -6.14,1.35 -12,3.38 -17.64,6.15 -5.64,2.7 -10.88,6.14 -15.73,10.31 -4.85,4.17 -9.07,9.08 -12.68,14.6 -3.61,5.58 -6.43,11.89 -8.46,18.88 -2.03,7.05 -3.04,14.77 -3.04,23.28z"/>
    <path id="_1" fill="#EBECEE" fill-rule="nonzero" d="M1841.9 1252.49l131.23 -252.64 80.49 0 131.22 252.64 -77.45 0 -20.96 -40.25 -146.11 0 -20.97 40.25 -77.45 0zm214.2 -98.31l-42.73 -81.73 -42.72 81.73 85.45 0z"/>
    <path id="_2" fill="#EBECEE" fill-rule="nonzero" d="M2400.72 999.85c9.42,0 17.93,1.24 25.59,3.77 7.67,2.54 14.49,5.98 20.52,10.43 6.03,4.46 11.16,9.7 15.45,15.73 4.28,6.03 7.72,12.51 10.37,19.45 2.65,6.93 4.39,14.14 5.3,21.7 0.9,7.55 0.95,15.05 0.22,22.54 -0.73,7.5 -2.37,14.77 -4.79,21.88 -2.42,7.1 -5.75,13.69 -9.86,19.72 -4.12,6.04 -9.14,11.45 -14.94,16.13 -5.81,4.67 -12.52,8.34 -20.01,10.99l57.49 90.3 -86.13 0 -54.68 -85.79 -54.46 0 0 85.79 -72.6 0 0 -252.64 182.53 0zm-109.93 115.66l82.76 0c5.24,0 9.87,-0.9 13.81,-2.76 3.95,-1.86 7.22,-4.22 9.87,-7.21 2.65,-2.99 4.62,-6.37 5.92,-10.2 1.29,-3.84 1.97,-7.73 1.97,-11.73 0,-4 -0.68,-7.89 -1.97,-11.72 -1.3,-3.84 -3.27,-7.22 -5.92,-10.21 -2.65,-2.98 -5.92,-5.35 -9.87,-7.21 -3.94,-1.86 -8.57,-2.76 -13.81,-2.76l-82.76 0 0 63.8z"/>
    <polygon id="_3" fill="#EBECEE" fill-rule="nonzero" points="2537.45,1252.49 2537.45,999.85 2774.87,999.85 2774.87,1051.71 2610.05,1051.71 2610.05,1103 2766.08,1103 2766.08,1154.18 2610.05,1154.18 2610.05,1200.63 2774.87,1200.63 2774.87,1252.49 "/>
    <polygon id="_4" fill="#EBECEE" fill-rule="nonzero" points="2837.54,1252.49 2837.54,999.85 3074.96,999.85 3074.96,1051.71 2910.14,1051.71 2910.14,1103 3066.17,1103 3066.17,1154.18 2910.14,1154.18 2910.14,1200.63 3074.96,1200.63 3074.96,1252.49 "/>
    <path id="_5" fill="#EBECEE" fill-rule="nonzero" d="M3320.15 999.85c9.42,0 17.93,1.24 25.59,3.77 7.67,2.54 14.49,5.98 20.52,10.43 6.03,4.46 11.16,9.7 15.45,15.73 4.28,6.03 7.72,12.51 10.37,19.45 2.65,6.93 4.39,14.14 5.3,21.7 0.9,7.55 0.95,15.05 0.22,22.54 -0.73,7.5 -2.37,14.77 -4.79,21.88 -2.42,7.1 -5.75,13.69 -9.86,19.72 -4.12,6.04 -9.14,11.45 -14.94,16.13 -5.81,4.67 -12.52,8.34 -20.01,10.99l57.49 90.3 -86.13 0 -54.67 -85.79 -54.46 0 0 85.79 -72.6 0 0 -252.64 182.52 0zm-109.92 115.66l82.75 0c5.24,0 9.87,-0.9 13.81,-2.76 3.95,-1.86 7.22,-4.22 9.87,-7.21 2.65,-2.99 4.62,-6.37 5.92,-10.2 1.29,-3.84 1.97,-7.73 1.97,-11.73 0,-4 -0.68,-7.89 -1.97,-11.72 -1.3,-3.84 -3.27,-7.22 -5.92,-10.21 -2.65,-2.98 -5.92,-5.35 -9.87,-7.21 -3.94,-1.86 -8.57,-2.76 -13.81,-2.76l-82.75 0 0 63.8z"/>
    <polygon id="_6" fill="#EBECEE" fill-rule="nonzero" points="3526.67,999.85 3598.71,999.85 3598.71,1252.49 3526.67,1252.49 "/>
    <polygon id="_7" fill="#EBECEE" fill-rule="nonzero" points="3661.37,999.85 3725.46,999.85 3852.4,1141.22 3852.4,999.85 3916.38,999.85 3916.38,1252.49 3850.6,1252.49 3725.46,1112.47 3725.46,1252.49 3661.37,1252.49 "/>
    <path id="_8" fill="#EBECEE" fill-rule="nonzero" d="M4038.35 1163.43c2.25,6.82 5.8,12.74 10.71,17.64 4.9,4.91 10.43,8.96 16.68,12.06 6.26,3.1 12.91,5.42 20.01,6.88 7.11,1.47 13.98,2.2 20.69,2.2 5.41,0 10.54,-0.45 15.33,-1.35 4.79,-0.91 9.02,-2.2 12.63,-3.95 3.61,-1.75 6.48,-3.83 8.57,-6.26 2.08,-2.42 3.15,-5.24 3.15,-8.39 0,-4.23 -1.24,-7.9 -3.77,-11.05 -2.54,-3.16 -5.81,-5.92 -9.87,-8.29 -4.06,-2.37 -8.62,-4.4 -13.64,-6.03 -5.01,-1.64 -10.03,-3.04 -14.99,-4.17 -4.96,-1.13 -9.64,-2.03 -14.04,-2.76 -4.39,-0.74 -8,-1.36 -10.88,-1.98 -6.99,-1.41 -14.31,-3.04 -21.92,-4.9 -7.61,-1.86 -15.11,-4.12 -22.44,-6.82 -7.33,-2.71 -14.32,-5.92 -20.97,-9.7 -6.65,-3.77 -12.46,-8.28 -17.47,-13.58 -5.02,-5.3 -8.96,-11.44 -11.95,-18.49 -2.99,-7.05 -4.46,-15.11 -4.46,-24.3 0,-9.47 1.64,-17.98 4.91,-25.47 3.27,-7.5 7.72,-14.15 13.36,-19.96 5.64,-5.8 12.23,-10.76 19.84,-14.88 7.61,-4.11 15.73,-7.5 24.46,-10.15 8.74,-2.64 17.76,-4.56 27.17,-5.8 9.42,-1.24 18.66,-1.86 27.85,-1.86 18.21,0 34.72,1.75 49.55,5.24 14.82,3.5 27.79,8.29 38.83,14.43 11.05,6.14 20.13,13.36 27.17,21.76 7.05,8.4 11.9,17.47 14.43,27.22l-70.46 14.44c-2.98,-6.49 -6.7,-11.9 -11.1,-16.3 -4.4,-4.39 -9.3,-7.94 -14.66,-10.59 -5.35,-2.65 -11.16,-4.57 -17.41,-5.75 -6.26,-1.19 -12.74,-1.75 -19.51,-1.75 -5.58,0 -10.59,0.62 -15.1,1.92 -4.51,1.29 -8.35,2.98 -11.5,5.07 -3.16,2.09 -5.58,4.51 -7.33,7.16 -1.75,2.65 -2.59,5.41 -2.59,8.17 0,2.65 1.01,5.02 2.98,7.1 1.98,2.09 4.57,4.01 7.78,5.7 3.22,1.69 6.77,3.15 10.77,4.45 4,1.3 8,2.42 12.06,3.38 7.89,1.86 15.84,3.78 23.85,5.7 8,1.91 15.95,3.94 23.9,6.14 7.94,2.2 15.78,4.62 23.5,7.27 7.72,2.65 15.33,5.64 22.77,8.96 7.22,3.22 13.53,7.11 18.94,11.67 5.42,4.57 9.92,9.53 13.48,15 3.55,5.46 6.2,11.21 7.94,17.3 1.75,6.09 2.54,12.29 2.37,18.6 -0.17,6.77 -1.46,13.59 -4,20.47 -2.54,6.87 -6.2,13.47 -10.99,19.78 -4.79,6.31 -10.77,12.23 -17.93,17.7 -7.16,5.47 -15.44,10.26 -24.86,14.26 -9.41,4 -20.01,7.22 -31.79,9.53 -11.78,2.31 -24.69,3.49 -38.72,3.49 -9.87,-0.05 -19.56,-0.9 -29.2,-2.53 -9.64,-1.64 -18.89,-4.01 -27.85,-7.11 -8.96,-3.1 -17.42,-6.99 -25.36,-11.55 -7.95,-4.57 -15.17,-9.92 -21.65,-15.95 -6.48,-6.04 -12.06,-12.8 -16.85,-20.24 -4.79,-7.44 -8.4,-15.56 -10.88,-24.35l70.46 -14.43z"/>
    <polygon id="_9" fill="#EBECEE" fill-rule="nonzero" points="4268.09,999.85 4494.12,999.85 4494.12,1066.36 4417.13,1066.36 4417.13,1252.49 4345.09,1252.49 4345.09,1066.36 4268.09,1066.36 "/>
    <polygon id="_10" fill="#EBECEE" fill-rule="nonzero" points="4545.52,999.85 4617.56,999.85 4617.56,1252.49 4545.52,1252.49 "/>
    <polygon id="_11" fill="#EBECEE" fill-rule="nonzero" points="4668.95,999.85 4894.98,999.85 4894.98,1066.36 4817.99,1066.36 4817.99,1252.49 4745.95,1252.49 4745.95,1066.36 4668.95,1066.36 "/>
    <path id="_12" fill="#EBECEE" fill-rule="nonzero" d="M4935.1 1125.49l0 -125.64 72.04 0 0 125.36c0,12.68 1.35,23.79 4,33.2 2.65,9.41 6.37,17.31 11.1,23.56 4.74,6.26 10.37,10.94 16.91,13.98 6.54,3.05 13.7,4.57 21.54,4.57 7.83,0 14.99,-1.52 21.53,-4.57 6.54,-3.04 12.17,-7.72 16.91,-13.98 4.73,-6.25 8.4,-14.15 11.05,-23.56 2.65,-9.41 3.94,-20.52 3.94,-33.2l0 -125.36 72.04 0 0 125.64c0,14.94 -1.46,28.64 -4.34,41.09 -2.87,12.41 -6.99,23.62 -12.34,33.49 -5.36,9.92 -11.78,18.66 -19.34,26.1 -7.55,7.49 -16.01,13.69 -25.31,18.6 -9.3,4.9 -19.39,8.57 -30.15,10.99 -10.77,2.42 -22.1,3.55 -33.99,3.49 -17.82,0.17 -34.39,-2.53 -49.66,-8.06 -15.28,-5.52 -28.58,-13.86 -39.86,-25.02 -11.27,-11.16 -20.12,-25.14 -26.49,-41.89 -6.37,-16.79 -9.58,-36.41 -9.58,-58.79z"/>
    <polygon id="_13" fill="#EBECEE" fill-rule="nonzero" points="5226.28,999.85 5452.31,999.85 5452.31,1066.36 5375.32,1066.36 5375.32,1252.49 5303.28,1252.49 5303.28,1066.36 5226.28,1066.36 "/>
    <polygon id="_14" fill="#EBECEE" fill-rule="nonzero" points="5503.7,1252.49 5503.7,999.85 5741.13,999.85 5741.13,1051.71 5576.3,1051.71 5576.3,1103 5732.34,1103 5732.34,1154.18 5576.3,1154.18 5576.3,1200.63 5741.13,1200.63 5741.13,1252.49 "/>
    <path id="_15" fill="#EBECEE" fill-rule="nonzero" d="M6042.07 999.85c8.9,0 17.08,1.01 24.46,2.98 7.44,1.98 14.09,4.74 20.07,8.29 5.97,3.55 11.21,7.72 15.61,12.57 4.45,4.85 8.17,10.15 11.16,15.84 2.99,5.69 5.24,11.73 6.77,17.98 1.52,6.26 2.31,12.63 2.36,19.11 0.06,6.48 -0.62,12.85 -2.08,19.22 -1.47,6.37 -3.67,12.4 -6.65,18.15 -2.99,5.75 -6.71,11.11 -11.22,16.01 -4.51,4.91 -9.7,9.19 -15.67,12.8 -5.92,3.6 -12.63,6.42 -20.18,8.45 -7.5,2.03 -15.73,2.99 -24.63,2.93l-95.94 0 0 98.31 -72.55 0 0 -252.64 168.49 0zm-95.89 51.86l0 51.29 68.77 0c5.87,0 10.99,-0.73 15.39,-2.25 4.4,-1.53 8.06,-3.44 10.99,-5.87 2.93,-2.42 5.13,-5.13 6.54,-8.23 1.41,-3.1 2.14,-6.25 2.14,-9.47 0,-3.15 -0.73,-6.25 -2.25,-9.35 -1.52,-3.1 -3.72,-5.81 -6.65,-8.18 -2.93,-2.36 -6.6,-4.28 -10.94,-5.75 -4.34,-1.46 -9.41,-2.19 -15.22,-2.19l-68.77 0z"/>
    <polygon id="_16" fill="#EBECEE" fill-rule="nonzero" points="6144.69,999.85 6222.14,999.85 6301.39,1164.89 6380.87,999.85 6458.32,999.85 6337.47,1252.49 6265.54,1252.49 "/>
    <polygon id="_17" fill="#EBECEE" fill-rule="nonzero" points="6480.4,999.85 6706.44,999.85 6706.44,1066.36 6629.44,1066.36 6629.44,1252.49 6557.4,1252.49 6557.4,1066.36 6480.4,1066.36 "/>
    <polygon id="_18" fill="#EBECEE" fill-rule="nonzero" points="6757.83,1190.48 6829.87,1190.48 6829.87,1252.49 6757.83,1252.49 "/>
    <polygon id="_19" fill="#EBECEE" fill-rule="nonzero" points="6962.31,999.85 7034.29,999.85 7034.29,1185.98 7199.06,1185.98 7199.06,1252.49 6962.31,1252.49 "/>
    <polygon id="_20" fill="#EBECEE" fill-rule="nonzero" points="7174.69,999.85 7400.72,999.85 7400.72,1066.36 7323.73,1066.36 7323.73,1252.49 7251.69,1252.49 7251.69,1066.36 7174.69,1066.36 "/>
    <path id="_21" fill="#EBECEE" fill-rule="nonzero" d="M7452.11 999.85l148.48 0c8.85,0 17.47,0.5 25.81,1.52 8.34,1.01 16.35,2.87 24.02,5.52 7.66,2.65 14.88,6.32 21.7,10.94 6.82,4.62 13.07,10.6 18.77,17.87 4.68,5.8 8.62,12.12 11.95,18.94 3.32,6.82 6.03,14.03 8.11,21.59 2.09,7.55 3.67,15.44 4.68,23.67 1.02,8.23 1.53,16.69 1.53,25.31 0,9.7 -0.46,19.11 -1.3,28.18 -0.85,9.08 -2.54,17.82 -5.02,26.22 -2.48,8.39 -5.97,16.4 -10.54,24.07 -4.56,7.66 -10.54,14.93 -17.98,21.75 -10.77,10.09 -22.49,16.8 -35.17,20.18 -8.63,2.26 -16.8,3.95 -24.47,5.13 -7.66,1.19 -15.05,1.75 -22.09,1.75l-148.48 0 0 -252.64zm72.6 57.04l0 138.22 57.05 0c16.23,0 27.84,-1.86 34.83,-5.53 3.56,-1.97 6.54,-4.34 9.02,-7.21 2.48,-2.88 4.57,-6.03 6.2,-9.53 1.64,-3.49 2.93,-7.21 3.84,-11.1 0.9,-3.89 1.57,-7.89 2.03,-11.9 0.45,-4 0.73,-8 0.84,-11.95 0.11,-3.94 0.17,-7.66 0.17,-11.1 0,-27 -4.34,-45.32 -13.08,-55.02 -8.79,-9.92 -23.28,-14.88 -43.51,-14.88l-57.39 0z"/>
    <path fill="#EBECEE" fill-rule="nonzero" d="M1578.1 738.7l0 -694.35 241.72 0c37.88,0 68.06,1.92 90.53,5.78 53.29,9.63 94.38,33.7 123.27,72.22 28.89,38.53 43.34,88.6 43.34,150.24 0,71.91 -19.59,126.8 -58.75,164.68 -39.16,37.88 -96.62,56.82 -172.38,56.82l-90.53 0 0 244.61 -177.2 0zm177.2 -551.82l0 164.68 49.12 0c28.89,0 51.68,-7.39 68.37,-22.15 16.69,-14.77 25.04,-35.63 25.04,-62.6 0,-53.29 -30.5,-79.93 -91.49,-79.93l-51.04 0z"/>
    <path id="_1_0" fill="#EBECEE" fill-rule="nonzero" d="M2135.17 738.7l0 -694.35 172.39 0 0 271.58c35.16,-45.59 80.58,-68.38 136.28,-68.38 56.33,0 98.87,19.26 127.76,57.78 11.4,16.05 19.42,34.19 23.91,54.41 4.5,20.23 6.75,48 6.75,83.31l0 295.65 -172.39 0 0 -260.98c0,-57.79 -19.58,-86.68 -58.74,-86.68 -10.12,0 -19.91,2.57 -29.38,7.71 -9.47,5.13 -17.01,12.03 -22.32,20.7 -5.45,8.67 -8.66,19.74 -9.95,33.23 -1.28,13.48 -1.92,26 -1.92,37.56l0 248.46 -172.39 0z"/>
    <path id="_2_1" fill="#EBECEE" fill-rule="nonzero" d="M2690.32 738.7l0 -478.63 170.46 0 0 478.63 -170.46 0zm-14.44 -610.57c0,-23.11 9.63,-42.69 28.89,-58.74 19.26,-16.05 43.02,-24.08 71.27,-24.08 27.6,0 51.2,8.19 70.78,24.56 19.58,16.37 29.37,35.79 29.37,58.26 0,23.12 -9.79,42.86 -29.37,59.23 -19.58,16.37 -43.18,24.56 -70.78,24.56 -28.25,0 -52.01,-8.03 -71.27,-24.08 -19.26,-16.05 -28.89,-35.95 -28.89,-59.71z"/>
    <polygon id="_3_2" fill="#EBECEE" fill-rule="nonzero" points="2945.96,738.7 2945.96,44.35 3118.35,44.35 3118.35,738.7 "/>
    <path id="_4_3" fill="#EBECEE" fill-rule="nonzero" d="M3187.15 499.87c0,-73.84 24.24,-134.35 72.71,-181.54 48.47,-47.19 110.59,-70.78 186.36,-70.78 76.4,0 138.84,23.59 187.31,70.78 48.47,47.19 72.71,107.7 72.71,181.54 0,75.11 -24.24,136.27 -72.71,183.46 -48.47,47.18 -110.91,70.78 -187.31,70.78 -76.41,0 -138.69,-23.76 -186.84,-71.27 -48.15,-47.51 -72.23,-108.5 -72.23,-182.97zm259.07 -110.75c-28.25,0 -51.7,10.27 -70.31,30.81 -18.62,20.55 -27.93,47.19 -27.93,79.94 0,32.1 9.31,58.74 27.93,79.93 18.61,21.19 42.06,31.78 70.31,31.78 28.25,0 51.84,-10.43 70.78,-31.3 18.94,-20.87 28.41,-47.67 28.41,-80.41 0,-32.75 -9.31,-59.39 -27.93,-79.94 -18.62,-20.54 -42.37,-30.81 -71.26,-30.81z"/>
    <path id="_5_4" fill="#EBECEE" fill-rule="nonzero" d="M3776.97 738.7l0 -478.63 167.57 0 0 63.56c34.03,-51.36 82.18,-77.04 144.46,-77.04 59.06,0 101.12,23.11 126.15,69.34 42.06,-46.23 93.1,-69.34 153.13,-69.34 56.82,0 99.19,18.94 126.97,56.82 12.36,16.05 20.06,35.63 23.27,58.74l0 72.23 0 304.32 -172.39 0 0 -261.47 0 -34.83c-1.29,-14.28 -6.74,-25.84 -16.53,-34.99 -9.63,-8.98 -21.35,-13.48 -34.99,-13.48 -8.99,0 -18.3,2.73 -27.61,8.19 -9.47,5.45 -16.69,12.52 -21.83,20.86 -7.87,13.49 -11.72,36.12 -11.72,67.74l0 247.98 -172.38 0 0 -264.84 0 -32.74c-1.29,-13.48 -6.74,-24.72 -16.37,-33.71 -9.63,-8.98 -21.19,-13.48 -34.67,-13.48 -40.45,0 -60.67,30.18 -60.67,90.53l0 254.24 -172.39 0z"/>
    <path id="_6_5" fill="#EBECEE" fill-rule="nonzero" d="M4931.13 318.81l0 -58.74 172.39 0 0 478.63 -172.39 0 0 -60.67c-26.32,50.72 -71.26,76.08 -134.82,76.08 -61,0 -110.91,-23.6 -149.76,-70.95 -38.84,-47.18 -58.26,-108.5 -58.26,-183.78 0,-72.06 20.06,-132.09 60.19,-179.92 40.13,-47.99 90.04,-71.91 149.75,-71.91 49.44,0 88.28,15.09 116.53,45.26 5.14,6.42 10.59,15.09 16.37,26zm-84.75 70.31c-27.6,0 -50.07,10.43 -67.41,31.13 -17.33,20.71 -26,47.51 -26,80.58 0,34.35 8.67,61.79 26,82.5 17.34,20.7 40.13,31.14 68.38,31.14 28.25,0 51.04,-10.44 68.37,-31.14 17.34,-20.71 26.01,-48.15 26.01,-82.5 0,-33.07 -8.99,-59.87 -26.97,-80.58 -17.98,-20.7 -40.77,-31.13 -68.38,-31.13z"/>
    <path id="_7_6" fill="#EBECEE" fill-rule="nonzero" d="M5143.43 399.71l0 -139.64 70.3 0 0 -117.49 172.38 0 0 117.49 109.79 0 0 139.64 -109.79 0 0 141.57c0,19.26 0.96,33.7 2.89,43.33 1.93,9.63 8.35,18.3 19.26,26.01 10.92,7.7 25.04,11.55 42.38,11.55 11.55,0 25.03,-2.24 40.44,-6.74l21.19 111.71c-22.47,8.99 -43.66,15.41 -63.56,19.26 -19.9,3.86 -40.45,5.78 -61.64,5.78 -55.53,0 -99.67,-16.37 -132.73,-49.11 -15.41,-15.41 -26.17,-32.1 -31.95,-50.08 -5.77,-17.98 -8.66,-43.34 -8.66,-76.08l0 -177.2 -70.3 0z"/>
    <path id="_8_7" fill="#EBECEE" fill-rule="nonzero" d="M5546.4 738.7l0 -694.35 172.4 0 0 271.58c35.15,-45.59 80.57,-68.38 136.27,-68.38 56.33,0 98.87,19.26 127.76,57.78 11.4,16.05 19.42,34.19 23.91,54.41 4.5,20.23 6.75,48 6.75,83.31l0 295.65 -172.39 0 0 -260.98c0,-57.79 -19.58,-86.68 -58.74,-86.68 -10.12,0 -19.91,2.57 -29.38,7.71 -9.47,5.13 -17.01,12.03 -22.31,20.7 -5.45,8.67 -8.66,19.74 -9.95,33.23 -1.28,13.48 -1.92,26 -1.92,37.56l0 248.46 -172.4 0z"/>
    <path id="_9_8" fill="#EBECEE" fill-rule="nonzero" d="M6589.82 542.24l-342.85 0c3.86,28.25 14.45,50.72 31.78,67.41 17.34,16.7 38.85,25.04 64.53,25.04 19.26,0 37.72,-5.94 55.37,-17.81 17.66,-11.88 31.3,-27.13 40.93,-45.75l136.75 49.12c-1.92,4.49 -4.33,9.14 -7.22,13.96 -2.89,4.82 -5.3,9.15 -7.22,13 -23.12,34.03 -53.77,60.35 -91.97,78.97 -38.2,18.62 -81.38,27.93 -129.53,27.93 -75.76,0 -137.4,-22.79 -184.91,-68.38 -47.51,-45.58 -71.26,-105.29 -71.26,-179.12 0,-75.12 24.24,-137.24 72.71,-186.35 48.47,-49.12 109.63,-73.67 183.46,-73.67 74.47,0 134.66,24.23 180.57,72.71 45.9,48.47 68.86,111.87 68.86,190.2l0 32.74zm-249.43 -184.9c-25.04,0 -45.91,8.02 -62.6,24.07 -16.69,16.05 -26.96,38.52 -30.82,67.41l180.09 0c0,-28.24 -7.86,-50.55 -23.59,-66.93 -15.73,-16.37 -36.76,-24.55 -63.08,-24.55z"/>
    <path id="_10_9" fill="#EBECEE" fill-rule="nonzero" d="M6987.03 318.81l0 -58.74 172.39 0 0 478.63 -172.39 0 0 -60.67c-26.32,50.72 -71.26,76.08 -134.82,76.08 -61,0 -110.91,-23.6 -149.76,-70.95 -38.84,-47.18 -58.27,-108.5 -58.27,-183.78 0,-72.06 20.07,-132.09 60.2,-179.92 40.13,-47.99 90.04,-71.91 149.75,-71.91 49.44,0 88.28,15.09 116.53,45.26 5.14,6.42 10.59,15.09 16.37,26zm-84.75 70.31c-27.6,0 -50.07,10.43 -67.41,31.13 -17.33,20.71 -26,47.51 -26,80.58 0,34.35 8.67,61.79 26,82.5 17.34,20.7 40.13,31.14 68.38,31.14 28.25,0 51.04,-10.44 68.37,-31.14 17.34,-20.71 26.01,-48.15 26.01,-82.5 0,-33.07 -8.99,-59.87 -26.97,-80.58 -17.98,-20.7 -40.77,-31.13 -68.38,-31.13z"/>
    <path id="_11_10" fill="#EBECEE" fill-rule="nonzero" d="M7245.55 738.7l0 -478.63 172.39 0 0 67.41 10.59 -16.37c31.94,-43.02 77.68,-64.52 137.23,-64.52 54.41,0 95.02,18.62 121.99,55.85 10.75,14.77 18.13,30.82 21.99,48.15 3.85,17.34 5.78,44.3 5.78,80.9l0 307.21 -172.39 0 0 -260.02 0 -19.26c0,-7.06 -0.8,-16.05 -2.41,-26.97 -1.6,-10.91 -7.54,-20.86 -17.65,-29.85 -10.27,-8.99 -22.95,-13.48 -38.2,-13.48 -44.62,0 -66.93,34.02 -66.93,102.08l0 247.5 -172.39 0z"/>
    <rect fill="#EBECEE" x="1578.84" y="855.16" width="6134.42" height="22.82"/>
    <g>
     <path fill="#EBECEE" d="M876.09 621.2l-0.3 -96.64 187.16 -56.52 -406.75 -152.88 -406.76 152.88 56.04 16.92 0 93.37 -13.88 0 0 104.32 49.89 0 0 -104.32 -13.89 0 0 -86.69 105.91 31.99 0.01 -0.01c159.56,-76.51 280.48,-36.16 280.48,-36.16l0 12.91c-175.03,-12.02 -268.12,46.76 -268.12,46.76 0,0 -3.64,2.26 -9.22,5.65l0.12 69.21c56.4,-33.69 133.88,-53.95 219.42,-53.95 86.01,0 163.88,20.49 219.89,53.16z"/>
     <path fill="#EBECEE" d="M656.19 113.29c68.51,-80.15 195.6,-88.09 293.86,-86.81 45.9,0.59 255.94,18.39 284.38,-5.52 24.66,-20.74 58.88,-23.96 77.4,6.51 8.23,13.53 7.66,26.61 7.66,41.74 0,165.05 0,330.11 0,495.15 0,354.49 -343.21,620.02 -648.2,729.1 -5.03,1.8 -10.06,3.6 -15.09,5.4 -2.66,-0.95 -5.32,-1.9 -7.98,-2.85 0,-19.42 0,-38.85 0,-58.28 2.67,0.97 5.33,1.95 8,2.92 281.19,-101.47 608.47,-348.48 608.47,-676.29 0,-165.04 0,-330.1 0,-495.15 0,-0.68 0.02,-1.55 0.04,-2.55 -31.92,21.88 -90.41,22.15 -126.28,21.76 -63.02,-0.7 -125.99,-6.33 -189.11,-7.14 -100.69,-1.31 -248.93,4.3 -280.04,124.12 -0.14,0.53 -0.27,1.06 -0.41,1.58 -0.3,0.45 -0.59,0.91 -0.89,1.36 -2.62,4.02 -6.4,6.8 -11.32,7.04 -0.16,0.01 -0.32,0.02 -0.49,0.03 -0.16,-0.01 -0.32,-0.02 -0.49,-0.03 -4.91,-0.24 -8.69,-3.02 -11.31,-7.04 -0.3,-0.45 -0.59,-0.91 -0.89,-1.36 -0.14,-0.52 -0.28,-1.05 -0.41,-1.58 -31.12,-119.82 -179.34,-125.43 -280.05,-124.12 -63.1,0.81 -126.09,6.44 -189.1,7.14 -35.87,0.39 -94.37,0.12 -126.28,-21.76 0.02,1 0.04,1.87 0.04,2.55 0,165.05 0,330.11 0,495.15 0,244.45 181.82,440.13 377.66,563.37 0,21.4 0,42.79 0,64.19 -1.7,-1.01 -3.41,-2.04 -5.11,-3.05 -222.49,-133.05 -427.35,-350.18 -427.35,-624.51 0,-165.04 0,-330.1 0,-495.15 0,-15.13 -0.58,-28.21 7.65,-41.74 18.51,-30.47 52.75,-27.25 77.41,-6.51 28.44,23.91 238.47,6.11 284.38,5.52 98.26,-1.28 225.34,6.66 293.85,86.81z"/>
     <path fill="#EBECEE" d="M656.21 592.14c176.37,0 319.36,142.99 319.36,319.36 0,117.58 -63.57,220.33 -158.2,275.77 -47.2,27.64 -110.46,69.08 -169.15,69.24l0 -114.24c126.7,4.36 238.82,-97.88 238.82,-230.77 0,-127.46 -103.37,-230.83 -230.83,-230.83 -127.48,0 -230.85,103.37 -230.85,230.83 0,1.34 0.01,2.68 0,4.24l0 233.33c-40.42,-11.7 -79.47,-10.68 -81.34,-57.73l-7.19 -179.84c0,-176.37 142.99,-319.36 319.38,-319.36zm-190.15 323.83l-0.06 -2.78 0 -0.14 0 -0.14 0 -0.14 0 -0.14 0 -0.14 0 -0.14 0 -0.15 0 -0.14 0 -0.14 0 -0.14 0 -0.14 0 -0.14 0 0.14 0 0.14 0 0.14 0 0.14 0 0.14 0 0.15 0 0.14 0 0.14 0 0.14 0 0.14 0 0.14 0 0.14 0.06 2.78z"/>
     <path fill="#EBECEE" d="M656.19 1014.99c-57.16,0 -103.49,-46.32 -103.49,-103.49 0,-57.15 46.33,-103.5 103.49,-103.5 57.17,0 103.51,46.35 103.51,103.5 0,57.17 -46.34,103.49 -103.51,103.49zm-46.6 80.95c119.2,30.13 236.81,-59.95 236.81,-184.44 0,-105.05 -85.17,-190.19 -190.21,-190.19 -105.04,0 -190.19,85.14 -190.19,190.19 0,1.49 0.02,2.99 0,4.47l0 298.66c46.66,26.56 94.38,46.96 141.58,66.27l0 -185.47 2.01 0.51z"/>
     <path fill="#EBECEE" d="M656.21 848.65c-34.74,0 -62.87,28.11 -62.87,62.85 0,34.73 28.13,62.85 62.87,62.85 34.72,0 62.85,-28.12 62.85,-62.85 0,-34.74 -28.13,-62.85 -62.85,-62.85z"/>
    </g>
   </g>
  </g>
 </g>
</svg>
