<?xml version="1.0" encoding="UTF-8"?>
<!DOCTYPE svg PUBLIC "-//W3C//DTD SVG 1.1//EN" "http://www.w3.org/Graphics/SVG/1.1/DTD/svg11.dtd">
<!-- Creator: CorelDRAW 2021 (64-Bit) -->
<svg xmlns="http://www.w3.org/2000/svg" xml:space="preserve" width="50mm" height="10mm" version="1.1" shape-rendering="geometricPrecision" text-rendering="geometricPrecision" image-rendering="optimizeQuality" fill-rule="evenodd" clip-rule="evenodd"
viewBox="0 0 5000 1000"
 xmlns:xlink="http://www.w3.org/1999/xlink"
 xmlns:xodm="http://www.corel.com/coreldraw/odm/2003">
 <g id="Layer_x0020_1">
  <metadata id="CorelCorpID_0Corel-Layer"/>
  <g id="_2494836480544">
   <g>
    <path fill="#EBECEE" fill-rule="nonzero" d="M1246.21 773.53c0,4.8 0.57,9.2 1.71,13.18 1.14,3.99 2.72,7.56 4.75,10.73 2.02,3.16 4.39,5.91 7.11,8.25 2.72,2.34 5.66,4.27 8.82,5.82 3.17,1.58 6.46,2.72 9.9,3.48 3.45,0.76 6.9,1.14 10.35,1.14 3.76,0 7.4,-0.45 10.97,-1.36 3.57,-0.89 6.86,-2.25 9.87,-4.02 3,-1.8 5.66,-4.02 7.94,-6.67 2.27,-2.66 4.01,-5.76 5.18,-9.24l39.54 8.1c-1.4,4.93 -3.42,9.45 -6.11,13.63 -2.69,4.17 -5.82,7.97 -9.45,11.35 -3.64,3.42 -7.69,6.39 -12.15,8.95 -4.46,2.57 -9.2,4.75 -14.23,6.49 -5.03,1.74 -10.22,3.06 -15.62,3.98 -5.41,0.92 -10.85,1.39 -16.39,1.43 -7.84,0.03 -15.34,-0.61 -22.48,-1.97 -7.15,-1.36 -13.79,-3.41 -19.93,-6.16 -6.13,-2.75 -11.7,-6.23 -16.7,-10.44 -4.99,-4.17 -9.26,-9.08 -12.77,-14.64 -3.51,-5.54 -6.23,-11.83 -8.16,-18.79 -1.93,-6.99 -2.88,-14.67 -2.88,-23.05 0,-8.39 0.95,-16.07 2.88,-23.06 1.93,-6.96 4.65,-13.25 8.16,-18.79 3.51,-5.56 7.78,-10.47 12.77,-14.64 5,-4.21 10.57,-7.69 16.7,-10.44 6.14,-2.75 12.78,-4.8 19.93,-6.16 7.14,-1.36 14.64,-2 22.48,-1.96 5.54,0.03 10.98,0.5 16.39,1.42 5.4,0.92 10.59,2.24 15.62,3.98 5.03,1.74 9.77,3.92 14.23,6.49 4.46,2.56 8.51,5.53 12.15,8.95 3.63,3.38 6.76,7.18 9.42,11.35 2.66,4.14 4.71,8.7 6.14,13.63l-39.54 8.1c-1.17,-3.48 -2.91,-6.58 -5.18,-9.24 -2.28,-2.65 -4.94,-4.87 -7.94,-6.67 -3.01,-1.77 -6.3,-3.13 -9.87,-4.02 -3.57,-0.91 -7.21,-1.36 -10.97,-1.36 -3.45,0 -6.9,0.38 -10.35,1.14 -3.44,0.76 -6.73,1.9 -9.9,3.45 -3.16,1.52 -6.1,3.45 -8.82,5.79 -2.72,2.34 -5.09,5.09 -7.11,8.19 -2.03,3.13 -3.61,6.67 -4.75,10.59 -1.14,3.96 -1.71,8.29 -1.71,13.07z"/>
    <path id="_1" fill="#EBECEE" fill-rule="nonzero" d="M1364.36 844.97l73.63 -141.75 45.17 0 73.62 141.75 -43.45 0 -11.77 -22.58 -81.97 0 -11.77 22.58 -43.46 0zm120.19 -55.16l-23.97 -45.86 -23.98 45.86 47.95 0z"/>
    <path id="_2" fill="#EBECEE" fill-rule="nonzero" d="M1677.9 703.22c5.28,0 10.06,0.7 14.36,2.12 4.3,1.42 8.13,3.35 11.51,5.85 3.39,2.5 6.26,5.44 8.67,8.82 2.4,3.39 4.33,7.02 5.82,10.91 1.48,3.89 2.46,7.94 2.97,12.18 0.51,4.24 0.54,8.44 0.13,12.65 -0.42,4.21 -1.33,8.29 -2.69,12.27 -1.36,3.99 -3.23,7.69 -5.54,11.07 -2.31,3.39 -5.12,6.42 -8.38,9.05 -3.26,2.62 -7.02,4.68 -11.23,6.16l32.26 50.67 -48.32 0 -30.68 -48.14 -30.55 0 0 48.14 -40.74 0 0 -141.75 102.41 0zm-61.67 64.9l46.43 0c2.94,0 5.53,-0.51 7.74,-1.55 2.22,-1.05 4.05,-2.37 5.54,-4.05 1.49,-1.68 2.59,-3.57 3.32,-5.73 0.73,-2.15 1.11,-4.33 1.11,-6.57 0,-2.25 -0.38,-4.43 -1.11,-6.58 -0.73,-2.15 -1.83,-4.05 -3.32,-5.73 -1.49,-1.67 -3.32,-3 -5.54,-4.04 -2.21,-1.05 -4.8,-1.55 -7.74,-1.55l-46.43 0 0 35.8z"/>
    <polygon id="_3" fill="#EBECEE" fill-rule="nonzero" points="1754.61,844.97 1754.61,703.22 1887.82,703.22 1887.82,732.32 1795.35,732.32 1795.35,761.1 1882.89,761.1 1882.89,789.81 1795.35,789.81 1795.35,815.87 1887.82,815.87 1887.82,844.97 "/>
    <polygon id="_4" fill="#EBECEE" fill-rule="nonzero" points="1922.98,844.97 1922.98,703.22 2056.19,703.22 2056.19,732.32 1963.72,732.32 1963.72,761.1 2051.26,761.1 2051.26,789.81 1963.72,789.81 1963.72,815.87 2056.19,815.87 2056.19,844.97 "/>
    <path id="_5" fill="#EBECEE" fill-rule="nonzero" d="M2193.76 703.22c5.28,0 10.06,0.7 14.36,2.12 4.3,1.42 8.13,3.35 11.51,5.85 3.39,2.5 6.26,5.44 8.67,8.82 2.4,3.39 4.33,7.02 5.82,10.91 1.48,3.89 2.46,7.94 2.97,12.18 0.51,4.24 0.54,8.44 0.13,12.65 -0.42,4.21 -1.33,8.29 -2.69,12.27 -1.36,3.99 -3.23,7.69 -5.54,11.07 -2.31,3.39 -5.12,6.42 -8.38,9.05 -3.26,2.62 -7.02,4.68 -11.23,6.16l32.26 50.67 -48.32 0 -30.68 -48.14 -30.55 0 0 48.14 -40.74 0 0 -141.75 102.41 0zm-61.67 64.9l46.43 0c2.94,0 5.53,-0.51 7.74,-1.55 2.22,-1.05 4.05,-2.37 5.54,-4.05 1.49,-1.68 2.59,-3.57 3.32,-5.73 0.73,-2.15 1.11,-4.33 1.11,-6.57 0,-2.25 -0.38,-4.43 -1.11,-6.58 -0.73,-2.15 -1.83,-4.05 -3.32,-5.73 -1.49,-1.67 -3.32,-3 -5.54,-4.04 -2.21,-1.05 -4.8,-1.55 -7.74,-1.55l-46.43 0 0 35.8z"/>
    <polygon id="_6" fill="#EBECEE" fill-rule="nonzero" points="2309.62,703.22 2350.04,703.22 2350.04,844.97 2309.62,844.97 "/>
    <polygon id="_7" fill="#EBECEE" fill-rule="nonzero" points="2385.2,703.22 2421.16,703.22 2492.4,782.54 2492.4,703.22 2528.29,703.22 2528.29,844.97 2491.38,844.97 2421.16,766.41 2421.16,844.97 2385.2,844.97 "/>
    <path id="_8" fill="#EBECEE" fill-rule="nonzero" d="M2596.72 795c1.27,3.83 3.26,7.15 6.01,9.9 2.75,2.75 5.85,5.03 9.36,6.77 3.51,1.74 7.24,3.03 11.23,3.86 3.98,0.82 7.84,1.23 11.61,1.23 3.03,0 5.91,-0.25 8.6,-0.76 2.69,-0.51 5.06,-1.23 7.08,-2.21 2.03,-0.98 3.64,-2.15 4.81,-3.51 1.17,-1.36 1.77,-2.95 1.77,-4.72 0,-2.37 -0.69,-4.42 -2.12,-6.2 -1.42,-1.77 -3.25,-3.32 -5.53,-4.64 -2.28,-1.33 -4.84,-2.47 -7.66,-3.39 -2.81,-0.92 -5.63,-1.71 -8.41,-2.34 -2.78,-0.63 -5.41,-1.14 -7.87,-1.55 -2.47,-0.41 -4.49,-0.76 -6.11,-1.11 -3.92,-0.79 -8.03,-1.7 -12.3,-2.75 -4.27,-1.04 -8.48,-2.31 -12.59,-3.82 -4.11,-1.52 -8.03,-3.32 -11.76,-5.44 -3.73,-2.12 -6.99,-4.65 -9.81,-7.63 -2.81,-2.97 -5.03,-6.42 -6.7,-10.37 -1.68,-3.95 -2.5,-8.48 -2.5,-13.63 0,-5.31 0.92,-10.09 2.75,-14.3 1.84,-4.2 4.33,-7.93 7.5,-11.19 3.16,-3.26 6.86,-6.04 11.13,-8.35 4.27,-2.31 8.82,-4.21 13.73,-5.69 4.9,-1.49 9.96,-2.57 15.24,-3.26 5.28,-0.7 10.47,-1.05 15.62,-1.05 10.22,0 19.48,0.99 27.8,2.95 8.32,1.96 15.59,4.65 21.79,8.09 6.2,3.45 11.29,7.5 15.25,12.21 3.95,4.71 6.67,9.8 8.09,15.28l-39.53 8.09c-1.68,-3.63 -3.76,-6.67 -6.23,-9.14 -2.47,-2.46 -5.22,-4.46 -8.22,-5.94 -3.01,-1.49 -6.26,-2.57 -9.78,-3.23 -3.51,-0.66 -7.14,-0.98 -10.94,-0.98 -3.13,0 -5.94,0.35 -8.47,1.08 -2.53,0.72 -4.68,1.67 -6.46,2.84 -1.77,1.17 -3.13,2.53 -4.11,4.02 -0.98,1.48 -1.45,3.03 -1.45,4.58 0,1.49 0.57,2.82 1.67,3.99 1.11,1.17 2.57,2.24 4.37,3.19 1.8,0.95 3.79,1.77 6.04,2.5 2.24,0.73 4.49,1.36 6.77,1.9 4.42,1.04 8.88,2.12 13.38,3.19 4.49,1.08 8.95,2.22 13.4,3.45 4.46,1.23 8.86,2.59 13.19,4.08 4.34,1.49 8.61,3.16 12.78,5.03 4.05,1.8 7.59,3.98 10.63,6.55 3.03,2.56 5.56,5.34 7.56,8.41 1.99,3.07 3.47,6.29 4.46,9.71 0.98,3.41 1.42,6.89 1.32,10.44 -0.09,3.79 -0.82,7.62 -2.24,11.48 -1.43,3.85 -3.48,7.55 -6.17,11.1 -2.69,3.54 -6.04,6.86 -10.06,9.93 -4.01,3.07 -8.66,5.75 -13.94,8 -5.29,2.24 -11.23,4.05 -17.84,5.34 -6.61,1.3 -13.85,1.96 -21.73,1.96 -5.53,-0.03 -10.97,-0.5 -16.38,-1.42 -5.41,-0.92 -10.6,-2.24 -15.63,-3.98 -5.02,-1.74 -9.77,-3.92 -14.23,-6.49 -4.46,-2.56 -8.5,-5.56 -12.14,-8.95 -3.64,-3.38 -6.77,-7.18 -9.46,-11.35 -2.69,-4.18 -4.71,-8.73 -6.1,-13.66l39.53 -8.1z"/>
    <polygon id="_9" fill="#EBECEE" fill-rule="nonzero" points="2725.62,703.22 2852.44,703.22 2852.44,740.54 2809.24,740.54 2809.24,844.97 2768.82,844.97 2768.82,740.54 2725.62,740.54 "/>
    <polygon id="_10" fill="#EBECEE" fill-rule="nonzero" points="2881.27,703.22 2921.69,703.22 2921.69,844.97 2881.27,844.97 "/>
    <polygon id="_11" fill="#EBECEE" fill-rule="nonzero" points="2950.53,703.22 3077.35,703.22 3077.35,740.54 3034.15,740.54 3034.15,844.97 2993.73,844.97 2993.73,740.54 2950.53,740.54 "/>
    <path id="_12" fill="#EBECEE" fill-rule="nonzero" d="M3099.86 773.72l0 -70.5 40.42 0 0 70.34c0,7.11 0.76,13.34 2.24,18.63 1.49,5.28 3.58,9.7 6.23,13.22 2.66,3.51 5.82,6.13 9.49,7.84 3.67,1.71 7.69,2.56 12.08,2.56 4.4,0 8.41,-0.85 12.08,-2.56 3.67,-1.71 6.83,-4.33 9.49,-7.84 2.66,-3.52 4.71,-7.94 6.2,-13.22 1.49,-5.29 2.21,-11.52 2.21,-18.63l0 -70.34 40.42 0 0 70.5c0,8.38 -0.82,16.06 -2.43,23.05 -1.62,6.96 -3.92,13.25 -6.93,18.79 -3,5.56 -6.61,10.47 -10.85,14.64 -4.23,4.21 -8.98,7.69 -14.2,10.44 -5.22,2.75 -10.88,4.8 -16.92,6.16 -6.04,1.36 -12.39,2 -19.07,1.97 -9.99,0.09 -19.29,-1.43 -27.86,-4.53 -8.57,-3.1 -16.04,-7.78 -22.36,-14.04 -6.33,-6.26 -11.29,-14.11 -14.87,-23.5 -3.57,-9.42 -5.37,-20.43 -5.37,-32.98z"/>
    <polygon id="_13" fill="#EBECEE" fill-rule="nonzero" points="3263.23,703.22 3390.05,703.22 3390.05,740.54 3346.85,740.54 3346.85,844.97 3306.43,844.97 3306.43,740.54 3263.23,740.54 "/>
    <polygon id="_14" fill="#EBECEE" fill-rule="nonzero" points="3418.88,844.97 3418.88,703.22 3552.09,703.22 3552.09,732.32 3459.62,732.32 3459.62,761.1 3547.16,761.1 3547.16,789.81 3459.62,789.81 3459.62,815.87 3552.09,815.87 3552.09,844.97 "/>
    <path id="_15" fill="#EBECEE" fill-rule="nonzero" d="M3720.95 703.22c4.99,0 9.58,0.57 13.72,1.68 4.18,1.1 7.91,2.65 11.26,4.64 3.35,2 6.29,4.34 8.76,7.06 2.5,2.72 4.59,5.69 6.26,8.88 1.68,3.2 2.94,6.58 3.8,10.09 0.85,3.51 1.3,7.09 1.33,10.72 0.03,3.64 -0.35,7.22 -1.17,10.79 -0.83,3.57 -2.06,6.96 -3.74,10.18 -1.67,3.23 -3.76,6.23 -6.29,8.99 -2.53,2.75 -5.44,5.15 -8.79,7.17 -3.32,2.03 -7.09,3.61 -11.32,4.75 -4.21,1.14 -8.83,1.67 -13.82,1.64l-53.83 0 0 55.16 -40.71 0 0 -141.75 94.54 0zm-53.8 29.1l0 28.78 38.58 0c3.29,0 6.17,-0.42 8.64,-1.27 2.46,-0.85 4.52,-1.93 6.16,-3.29 1.65,-1.36 2.88,-2.88 3.67,-4.62 0.79,-1.74 1.2,-3.51 1.2,-5.31 0,-1.77 -0.41,-3.51 -1.26,-5.25 -0.85,-1.74 -2.09,-3.26 -3.73,-4.58 -1.65,-1.33 -3.7,-2.41 -6.14,-3.23 -2.43,-0.82 -5.28,-1.23 -8.54,-1.23l-38.58 0z"/>
    <polygon id="_16" fill="#EBECEE" fill-rule="nonzero" points="3778.53,703.22 3821.98,703.22 3866.45,795.82 3911.04,703.22 3954.5,703.22 3886.69,844.97 3846.34,844.97 "/>
    <polygon id="_17" fill="#EBECEE" fill-rule="nonzero" points="3966.89,703.22 4093.71,703.22 4093.71,740.54 4050.51,740.54 4050.51,844.97 4010.09,844.97 4010.09,740.54 3966.89,740.54 "/>
    <polygon id="_18" fill="#EBECEE" fill-rule="nonzero" points="4122.54,810.18 4162.96,810.18 4162.96,844.97 4122.54,844.97 "/>
    <polygon id="_19" fill="#EBECEE" fill-rule="nonzero" points="4237.27,703.22 4277.66,703.22 4277.66,807.65 4370.11,807.65 4370.11,844.97 4237.27,844.97 "/>
    <polygon id="_20" fill="#EBECEE" fill-rule="nonzero" points="4356.43,703.22 4483.25,703.22 4483.25,740.54 4440.05,740.54 4440.05,844.97 4399.63,844.97 4399.63,740.54 4356.43,740.54 "/>
    <path id="_21" fill="#EBECEE" fill-rule="nonzero" d="M4512.08 703.22l83.31 0c4.96,0 9.8,0.28 14.48,0.85 4.68,0.57 9.17,1.62 13.48,3.1 4.3,1.49 8.35,3.54 12.17,6.14 3.83,2.59 7.35,5.94 10.54,10.02 2.63,3.26 4.84,6.8 6.71,10.63 1.86,3.83 3.38,7.88 4.55,12.11 1.17,4.24 2.06,8.67 2.63,13.29 0.57,4.61 0.85,9.36 0.85,14.2 0,5.44 -0.25,10.72 -0.73,15.81 -0.47,5.09 -1.42,9.99 -2.81,14.71 -1.39,4.71 -3.35,9.2 -5.91,13.5 -2.57,4.3 -5.92,8.38 -10.09,12.21 -6.05,5.66 -12.63,9.42 -19.75,11.32 -4.84,1.27 -9.42,2.22 -13.72,2.88 -4.31,0.66 -8.45,0.98 -12.4,0.98l-83.31 0 0 -141.75zm40.74 32.01l0 77.54 32 0c9.11,0 15.63,-1.04 19.55,-3.1 1.99,-1.1 3.67,-2.43 5.06,-4.04 1.39,-1.62 2.56,-3.39 3.48,-5.35 0.92,-1.96 1.64,-4.05 2.15,-6.23 0.51,-2.18 0.89,-4.43 1.14,-6.67 0.25,-2.25 0.41,-4.49 0.47,-6.71 0.07,-2.21 0.1,-4.3 0.1,-6.23 0,-15.15 -2.44,-25.43 -7.34,-30.87 -4.93,-5.56 -13.06,-8.34 -24.42,-8.34l-32.19 0z"/>
    <path fill="#EBECEE" fill-rule="nonzero" d="M1216.35 556.69l0 -389.58 135.63 0c21.25,0 38.18,1.08 50.79,3.24 29.9,5.41 52.95,18.92 69.16,40.53 16.21,21.61 24.31,49.71 24.31,84.29 0,40.34 -10.98,71.14 -32.96,92.4 -21.97,21.25 -54.21,31.88 -96.72,31.88l-50.79 0 0 137.24 -99.42 0zm99.42 -309.61l0 92.4 27.56 0c16.21,0 29,-4.15 38.36,-12.43 9.37,-8.29 14.05,-19.99 14.05,-35.12 0,-29.9 -17.11,-44.85 -51.33,-44.85l-28.64 0z"/>
    <path id="_1_0" fill="#EBECEE" fill-rule="nonzero" d="M1528.9 556.69l0 -389.58 96.72 0 0 152.38c19.72,-25.58 45.21,-38.37 76.46,-38.37 31.61,0 55.47,10.81 71.68,32.42 6.4,9.01 10.9,19.18 13.42,30.53 2.52,11.35 3.78,26.93 3.78,46.74l0 165.88 -96.72 0 0 -146.43c0,-32.42 -10.98,-48.63 -32.96,-48.63 -5.67,0 -11.16,1.44 -16.48,4.32 -5.31,2.89 -9.54,6.76 -12.51,11.62 -3.07,4.86 -4.87,11.08 -5.59,18.64 -0.72,7.57 -1.08,14.59 -1.08,21.07l0 139.41 -96.72 0z"/>
    <path id="_2_1" fill="#EBECEE" fill-rule="nonzero" d="M1840.37 556.69l0 -268.54 95.65 0 0 268.54 -95.65 0zm-8.1 -342.57c0,-12.97 5.4,-23.95 16.21,-32.96 10.81,-9 24.13,-13.51 39.98,-13.51 15.49,0 28.73,4.6 39.72,13.78 10.99,9.19 16.49,20.08 16.49,32.69 0,12.97 -5.5,24.05 -16.49,33.23 -10.99,9.19 -24.23,13.78 -39.72,13.78 -15.85,0 -29.17,-4.5 -39.98,-13.51 -10.81,-9 -16.21,-20.17 -16.21,-33.5z"/>
    <polygon id="_3_2" fill="#EBECEE" fill-rule="nonzero" points="1983.8,556.69 1983.8,167.11 2080.52,167.11 2080.52,556.69 "/>
    <path id="_4_3" fill="#EBECEE" fill-rule="nonzero" d="M2119.12 422.69c0,-41.43 13.6,-75.38 40.79,-101.85 27.2,-26.48 62.05,-39.72 104.56,-39.72 42.86,0 77.89,13.24 105.09,39.72 27.2,26.47 40.8,60.42 40.8,101.85 0,42.14 -13.6,76.45 -40.8,102.93 -27.2,26.48 -62.23,39.72 -105.09,39.72 -42.87,0 -77.81,-13.33 -104.83,-39.99 -27.01,-26.66 -40.52,-60.88 -40.52,-102.66zm145.35 -62.14c-15.85,0 -29,5.76 -39.45,17.29 -10.44,11.53 -15.67,26.48 -15.67,44.85 0,18.01 5.23,32.96 15.67,44.85 10.45,11.88 23.6,17.83 39.45,17.83 15.85,0 29.08,-5.86 39.71,-17.56 10.63,-11.71 15.94,-26.75 15.94,-45.12 0,-18.37 -5.22,-33.32 -15.67,-44.85 -10.45,-11.53 -23.77,-17.29 -39.98,-17.29z"/>
    <path id="_5_4" fill="#EBECEE" fill-rule="nonzero" d="M2450.03 556.69l0 -268.54 94.02 0 0 35.66c19.09,-28.82 46.11,-43.23 81.05,-43.23 33.14,0 56.73,12.97 70.78,38.91 23.6,-25.94 52.24,-38.91 85.92,-38.91 31.88,0 55.65,10.63 71.23,31.88 6.93,9.01 11.26,19.99 13.06,32.96l0 40.53 0 170.74 -96.72 0 0 -146.7 0 -19.54c-0.72,-8.02 -3.78,-14.5 -9.28,-19.63 -5.4,-5.05 -11.97,-7.57 -19.63,-7.57 -5.04,0 -10.27,1.53 -15.49,4.59 -5.31,3.07 -9.36,7.03 -12.25,11.71 -4.41,7.57 -6.57,20.26 -6.57,38.01l0 139.13 -96.72 0 0 -148.59 0 -18.37c-0.72,-7.57 -3.78,-13.87 -9.19,-18.91 -5.4,-5.05 -11.88,-7.57 -19.45,-7.57 -22.69,0 -34.04,16.93 -34.04,50.79l0 142.65 -96.72 0z"/>
    <path id="_6_5" fill="#EBECEE" fill-rule="nonzero" d="M3097.6 321.11l0 -32.96 96.71 0 0 268.54 -96.71 0 0 -34.04c-14.77,28.46 -39.99,42.69 -75.65,42.69 -34.23,0 -62.24,-13.24 -84.03,-39.81 -21.8,-26.48 -32.69,-60.88 -32.69,-103.11 0,-40.44 11.25,-74.12 33.77,-100.95 22.51,-26.93 50.52,-40.35 84.03,-40.35 27.74,0 49.53,8.47 65.38,25.4 2.88,3.6 5.94,8.46 9.19,14.59zm-47.55 39.44c-15.49,0 -28.1,5.85 -37.84,17.47 -9.72,11.62 -14.59,26.66 -14.59,45.21 0,19.27 4.87,34.67 14.59,46.29 9.74,11.61 22.53,17.47 38.38,17.47 15.85,0 28.63,-5.86 38.36,-17.47 9.73,-11.62 14.59,-27.02 14.59,-46.29 0,-18.55 -5.04,-33.59 -15.13,-45.21 -10.09,-11.62 -22.87,-17.47 -38.36,-17.47z"/>
    <path id="_7_6" fill="#EBECEE" fill-rule="nonzero" d="M3216.71 366.49l0 -78.34 39.44 0 0 -65.92 96.72 0 0 65.92 61.6 0 0 78.34 -61.6 0 0 79.43c0,10.81 0.54,18.91 1.62,24.32 1.08,5.4 4.68,10.26 10.81,14.59 6.12,4.32 14.05,6.48 23.77,6.48 6.49,0 14.05,-1.26 22.7,-3.78l11.88 62.68c-12.6,5.04 -24.49,8.64 -35.66,10.8 -11.16,2.16 -22.69,3.24 -34.58,3.24 -31.16,0 -55.92,-9.18 -74.47,-27.55 -8.65,-8.65 -14.68,-18.01 -17.93,-28.1 -3.24,-10.09 -4.86,-24.31 -4.86,-42.69l0 -99.42 -39.44 0z"/>
    <path id="_8_7" fill="#EBECEE" fill-rule="nonzero" d="M3442.8 556.69l0 -389.58 96.72 0 0 152.38c19.72,-25.58 45.21,-38.37 76.46,-38.37 31.61,0 55.47,10.81 71.68,32.42 6.4,9.01 10.9,19.18 13.42,30.53 2.52,11.35 3.78,26.93 3.78,46.74l0 165.88 -96.72 0 0 -146.43c0,-32.42 -10.98,-48.63 -32.96,-48.63 -5.67,0 -11.16,1.44 -16.48,4.32 -5.31,2.89 -9.54,6.76 -12.51,11.62 -3.07,4.86 -4.87,11.08 -5.59,18.64 -0.72,7.57 -1.08,14.59 -1.08,21.07l0 139.41 -96.72 0z"/>
    <path id="_9_8" fill="#EBECEE" fill-rule="nonzero" d="M4028.22 446.46l-192.36 0c2.16,15.85 8.11,28.46 17.83,37.83 9.73,9.36 21.8,14.04 36.21,14.04 10.8,0 21.16,-3.33 31.07,-9.99 9.9,-6.67 17.56,-15.22 22.96,-25.67l76.73 27.56c-1.08,2.52 -2.44,5.13 -4.06,7.83 -1.62,2.71 -2.97,5.14 -4.05,7.3 -12.97,19.09 -30.17,33.86 -51.6,44.31 -21.43,10.44 -45.66,15.67 -72.67,15.67 -42.51,0 -77.09,-12.79 -103.75,-38.37 -26.65,-25.57 -39.98,-59.07 -39.98,-100.5 0,-42.15 13.6,-77 40.79,-104.55 27.2,-27.56 61.51,-41.34 102.94,-41.34 41.78,0 75.55,13.6 101.31,40.8 25.75,27.19 38.63,62.76 38.63,106.71l0 18.37zm-139.94 -103.74c-14.05,0 -25.76,4.5 -35.13,13.51 -9.36,9 -15.13,21.61 -17.29,37.82l101.05 0c0,-15.85 -4.42,-28.37 -13.24,-37.55 -8.83,-9.19 -20.63,-13.78 -35.39,-13.78z"/>
    <path id="_10_9" fill="#EBECEE" fill-rule="nonzero" d="M4251.09 321.11l0 -32.96 96.71 0 0 268.54 -96.71 0 0 -34.04c-14.77,28.46 -39.99,42.69 -75.65,42.69 -34.22,0 -62.23,-13.24 -84.03,-39.81 -21.8,-26.48 -32.69,-60.88 -32.69,-103.11 0,-40.44 11.25,-74.12 33.77,-100.95 22.52,-26.93 50.53,-40.35 84.03,-40.35 27.74,0 49.53,8.47 65.38,25.4 2.88,3.6 5.94,8.46 9.19,14.59zm-47.55 39.44c-15.49,0 -28.1,5.85 -37.83,17.47 -9.72,11.62 -14.59,26.66 -14.59,45.21 0,19.27 4.87,34.67 14.59,46.29 9.73,11.61 22.52,17.47 38.37,17.47 15.85,0 28.63,-5.86 38.36,-17.47 9.73,-11.62 14.59,-27.02 14.59,-46.29 0,-18.55 -5.04,-33.59 -15.13,-45.21 -10.09,-11.62 -22.87,-17.47 -38.36,-17.47z"/>
    <path id="_11_10" fill="#EBECEE" fill-rule="nonzero" d="M4396.13 556.69l0 -268.54 96.72 0 0 37.82 5.95 -9.19c17.92,-24.13 43.58,-36.2 76.99,-36.2 30.53,0 53.32,10.45 68.44,31.34 6.04,8.29 10.18,17.29 12.34,27.02 2.16,9.72 3.24,24.85 3.24,45.38l0 172.37 -96.71 0 0 -145.89 0 -10.81c0,-3.96 -0.46,-9 -1.36,-15.12 -0.9,-6.13 -4.23,-11.71 -9.9,-16.76 -5.77,-5.04 -12.88,-7.56 -21.43,-7.56 -25.04,0 -37.56,19.09 -37.56,57.28l0 138.86 -96.72 0z"/>
    <rect fill="#EBECEE" x="1216.77" y="622.04" width="3441.83" height="12.81"/>
    <g>
     <path fill="#EBECEE" d="M822.48 490.77l-0.17 -54.23 105.01 -31.71 -228.22 -85.77 -228.21 85.77 31.44 9.5 0 52.39 -7.79 0 0 58.52 27.99 0 0 -58.52 -7.79 0 0 -48.65 59.42 17.95 0.01 0c89.52,-42.93 157.37,-20.29 157.37,-20.29l0 7.24c-98.21,-6.74 -150.44,26.24 -150.44,26.24 0,0 -2.04,1.26 -5.18,3.17l0.07 38.83c31.65,-18.9 75.12,-30.27 123.11,-30.27 48.26,0 91.95,11.5 123.38,29.83z"/>
     <path fill="#EBECEE" d="M699.1 205.8c38.44,-44.97 109.74,-49.43 164.87,-48.71 25.76,0.33 143.6,10.31 159.56,-3.1 13.84,-11.64 33.04,-13.44 43.43,3.65 4.61,7.59 4.3,14.93 4.3,23.42 0,92.61 0,185.21 0,277.82 0,198.89 -192.57,347.87 -363.69,409.07 -2.82,1.01 -5.65,2.02 -8.47,3.03 -1.49,-0.53 -2.98,-1.07 -4.47,-1.6 0,-10.9 0,-21.8 0,-32.7 1.49,0.55 2.99,1.09 4.48,1.64 157.77,-56.93 341.4,-195.52 341.4,-379.44 0,-92.61 0,-185.21 0,-277.82 0,-0.38 0.01,-0.87 0.02,-1.43 -17.91,12.28 -50.73,12.43 -70.85,12.21 -35.36,-0.39 -70.69,-3.55 -106.1,-4.01 -56.5,-0.73 -139.67,2.42 -157.13,69.65 -0.07,0.29 -0.15,0.59 -0.23,0.88 -0.16,0.26 -0.33,0.51 -0.5,0.77 -1.47,2.25 -3.59,3.81 -6.34,3.94 -0.1,0.01 -0.19,0.02 -0.28,0.02 -0.09,0 -0.18,-0.01 -0.28,-0.02 -2.75,-0.13 -4.88,-1.69 -6.35,-3.94 -0.16,-0.26 -0.33,-0.51 -0.49,-0.77 -0.08,-0.29 -0.16,-0.59 -0.24,-0.88 -17.45,-67.23 -100.62,-70.38 -157.12,-69.65 -35.4,0.46 -70.74,3.62 -106.1,4.01 -20.12,0.22 -52.94,0.07 -70.85,-12.21 0.01,0.56 0.02,1.05 0.02,1.43 0,92.61 0,185.21 0,277.82 0,137.15 102.02,246.94 211.89,316.08 0,12.01 0,24.01 0,36.02 -0.95,-0.57 -1.91,-1.14 -2.86,-1.71 -124.83,-74.65 -239.78,-196.48 -239.78,-350.39 0,-92.61 0,-185.21 0,-277.82 0,-8.49 -0.32,-15.82 4.3,-23.42 10.38,-17.09 29.59,-15.29 43.43,-3.65 15.96,13.41 133.8,3.43 159.56,3.1 55.13,-0.72 126.43,3.74 164.87,48.71z"/>
     <path fill="#EBECEE" d="M699.11 474.46c98.95,0 179.18,80.23 179.18,179.18 0,65.97 -35.67,123.62 -88.76,154.73 -26.48,15.51 -61.97,38.76 -94.9,38.85l0 -64.1c71.08,2.45 133.99,-54.91 133.99,-129.48 0,-71.51 -58,-129.51 -129.51,-129.51 -71.53,0 -129.52,58 -129.52,129.51 0,0.76 0,1.51 0,2.39l0 130.91c-22.68,-6.57 -44.59,-5.99 -45.64,-32.39l-4.03 -100.91c0,-98.95 80.22,-179.18 179.19,-179.18zm-106.69 181.69l-0.03 -1.56 0 -0.08 0 -0.07 0 -0.08 0 -0.08 0 -0.08 0 -0.08 0 -0.08 0 -0.08 0 -0.08 0 -0.08 0 -0.08 0 -0.08 0 0.08 0 0.08 0 0.08 0 0.08 0 0.08 0 0.08 0 0.08 0 0.08 0 0.08 0 0.08 0 0.07 0 0.08 0.03 1.56z"/>
     <path fill="#EBECEE" d="M699.1 711.71c-32.07,0 -58.07,-25.99 -58.07,-58.06 0,-32.07 26,-58.07 58.07,-58.07 32.08,0 58.07,26 58.07,58.07 0,32.07 -25.99,58.06 -58.07,58.06zm-26.15 45.42c66.88,16.9 132.87,-33.64 132.87,-103.48 0,-58.94 -47.79,-106.71 -106.72,-106.71 -58.94,0 -106.71,47.77 -106.71,106.71 0,0.83 0.01,1.67 0,2.5l0 167.57c26.18,14.9 52.95,26.35 79.43,37.18l0 -104.06 1.13 0.29z"/>
     <path fill="#EBECEE" d="M699.11 618.38c-19.49,0 -35.28,15.78 -35.28,35.26 0,19.49 15.79,35.27 35.28,35.27 19.48,0 35.26,-15.78 35.26,-35.27 0,-19.48 -15.78,-35.26 -35.26,-35.26z"/>
    </g>
   </g>
  </g>
 </g>
</svg>
