<?xml version="1.0" encoding="UTF-8"?>
<!DOCTYPE svg PUBLIC "-//W3C//DTD SVG 1.1//EN" "http://www.w3.org/Graphics/SVG/1.1/DTD/svg11.dtd">
<!-- Creator: CorelDRAW 2021 (64-Bit) -->
<svg xmlns="http://www.w3.org/2000/svg" xml:space="preserve" width="17.0059mm" height="17.0052mm" version="1.1" shape-rendering="geometricPrecision" text-rendering="geometricPrecision" image-rendering="optimizeQuality" fill-rule="evenodd" clip-rule="evenodd"
viewBox="0 0 224.1 224.09"
 xmlns:xlink="http://www.w3.org/1999/xlink"
 xmlns:xodm="http://www.corel.com/coreldraw/odm/2003">
 <g id="Layer_x0020_1">
  <metadata id="CorelCorpID_0Corel-Layer"/>
  <ellipse fill="#23D400" cx="112.05" cy="112.04" rx="112.05" ry="112.04"/>
  <path fill="#FEFEFE" d="M182.55 68.82l0.01 0.01c6.01,6.01 6.01,15.81 0,21.81l-72.96 72.96 -0.28 0.28 -0.01 0.01 -0.28 0.28 -0.3 0.26 -0.29 0.26 -0.31 0.25 -0.3 0.25 -0.31 0.23 -0.31 0.22 -0.31 0.21 -0.01 0.01 -0.32 0.2 -0.65 0.38 -0.33 0.18 -0.34 0.17 -0.34 0.17 -0.34 0.15 -0.35 0.14 -0.35 0.13 -0.01 0.01 -0.34 0.12 -0.01 0.01 -0.35 0.11 -0.01 0.01 -0.35 0.11 -0.36 0.1 -0.01 -0.01 -0.35 0.09 -0.01 0.01 -0.36 0.08 -0.01 -0.01 -0.72 0.14 -0.37 0.06 -0.01 -0.01 -0.36 0.05 -0.01 0.01 -0.73 0.07 -0.01 -0.01 -0.37 0.03 -0.37 0.01 -0.01 0.01 -0.73 0 -0.01 -0.01 -0.37 -0.01 -0.37 -0.03 -0.01 0.01 -0.73 -0.07 -0.01 -0.01 -0.36 -0.05 -0.01 0.01 -0.37 -0.06 -0.72 -0.14 -0.01 0.01 -0.36 -0.08 -0.01 -0.01 -0.35 -0.09 -0.01 0.01 -0.36 -0.1 -0.35 -0.11 -0.01 -0.01 -0.35 -0.11 -0.01 -0.01 -0.34 -0.12 -0.01 -0.01 -0.35 -0.13 -0.35 -0.14 -0.34 -0.15 -0.34 -0.17 -0.34 -0.17 -0.33 -0.18 -0.65 -0.38 -0.32 -0.2 -0.01 -0.01 -0.31 -0.21 -0.31 -0.22 -0.31 -0.23 -0.3 -0.25 -0.31 -0.25 -0.29 -0.26 -0.3 -0.26 -0.28 -0.28 -0.01 -0.01 -0.28 -0.28 -45.67 -45.67c-6,-6 -6.01,-15.81 0,-21.81l0.01 -0.01c6.01,-6.01 15.81,-6.01 21.81,0l35.05 35.05 62.34 -62.34c6.01,-6.01 15.81,-6.01 21.81,0z"/>
 </g>
</svg>
