<?xml version="1.0" encoding="UTF-8"?>
<!DOCTYPE svg PUBLIC "-//W3C//DTD SVG 1.1//EN" "http://www.w3.org/Graphics/SVG/1.1/DTD/svg11.dtd">
<!-- Creator: CorelDRAW 2021 (64-Bit) -->
<svg xmlns="http://www.w3.org/2000/svg" xml:space="preserve" width="15.5289mm" height="14.9213mm" version="1.1" shape-rendering="geometricPrecision" text-rendering="geometricPrecision" image-rendering="optimizeQuality" fill-rule="evenodd" clip-rule="evenodd"
viewBox="0 0 185.84 178.57"
 xmlns:xlink="http://www.w3.org/1999/xlink"
 xmlns:xodm="http://www.corel.com/coreldraw/odm/2003">
 <g id="Layer_x0020_1">
  <metadata id="CorelCorpID_0Corel-Layer"/>
  <path fill="#23D400" d="M-0 71.13c0,7.65 1.37,9.68 5.69,14.96 2.94,3.59 5.62,6.79 8.53,10.47l8.59 10.41c0.72,0.82 1.36,1.67 2.03,2.52 0.85,1.07 1.39,1.63 2.25,2.71 3.92,4.96 3.72,5.15 3.49,12.64l-1.24 20.65c0.03,8.85 -3.78,19.43 4.21,27.57 5.5,5.59 13.46,6.96 20.74,3.99l16.04 -6.26c3.17,-1.27 19.64,-7.96 21.77,-7.96 5.33,0 17.79,5.71 23.42,7.97 3.75,1.5 18.11,7.73 22.01,7.73l2.89 0c8.49,0 16.93,-8.46 16.93,-16.93 0,-4.04 -0.42,-6.6 -0.4,-10.34l-1.66 -31.79c0,-3.59 1.03,-4.11 3.3,-7.02l21.38 -26.11c4.43,-5.42 5.88,-7.26 5.88,-15.19 0,-5.52 -3.82,-10.65 -7.13,-13.1 -4.27,-3.17 -9.25,-3.95 -14.84,-5.39 -5.43,-1.4 -10.6,-2.88 -16.02,-4.22 -2.76,-0.68 -13.96,-3.47 -15.69,-4.54 -2.96,-1.83 -13.8,-19.83 -16.44,-24.04 -0.69,-1.1 -1.23,-1.85 -1.98,-2.97l-5.99 -9.29c-7.65,-10.3 -22.36,-9.82 -29.52,-0.3 -0.82,1.09 -1.18,1.96 -1.89,3.06l-7.93 12.31c-2.81,4.2 -11.65,19.15 -14.45,21.06 -2.42,1.65 -34.63,9.64 -39.49,10.9 -8.06,2.08 -14.45,8.89 -14.45,16.52z"/>
 </g>
</svg>
