<?xml version="1.0" encoding="UTF-8"?>
<!DOCTYPE svg PUBLIC "-//W3C//DTD SVG 1.1//EN" "http://www.w3.org/Graphics/SVG/1.1/DTD/svg11.dtd">
<!-- Creator: CorelDRAW 2021 (64-Bit) -->
<svg xmlns="http://www.w3.org/2000/svg" xml:space="preserve" width="531px" height="413px" version="1.1" shape-rendering="geometricPrecision" text-rendering="geometricPrecision" image-rendering="optimizeQuality" fill-rule="evenodd" clip-rule="evenodd"
viewBox="0 0 531 413"
 xmlns:xlink="http://www.w3.org/1999/xlink"
 xmlns:xodm="http://www.corel.com/coreldraw/odm/2003">
 <g id="Layer_x0020_1">
  <metadata id="CorelCorpID_0Corel-Layer"/>
  <path fill="#454545" d="M402.16 68.82c-36.33,-36.37 -84.63,-56.41 -136.09,-56.43 -106.05,0 -192.35,86.29 -192.4,192.39 -0.02,33.9 8.85,67 25.69,96.19l-27.31 99.68 101.98 -26.75c28.1,15.33 59.75,23.41 91.94,23.42l0.08 0c106.03,0 192.35,-86.31 192.4,-192.4 0.03,-51.39 -19.97,-99.75 -56.29,-136.1zm-136.09 296l-0.07 0c-28.7,0 -56.83,-7.72 -81.39,-22.29l-5.84 -3.46 -60.52 15.87 16.16 -59.02 -3.8 -6.05c-16.01,-25.46 -24.46,-54.89 -24.44,-85.09 0.03,-88.17 71.78,-159.9 159.98,-159.9 42.7,0 82.86,16.66 113.04,46.88 30.19,30.24 46.8,70.4 46.79,113.13 -0.05,88.2 -71.78,159.93 -159.91,159.93zm87.71 -119.76c-4.81,-2.41 -28.44,-14.04 -32.86,-15.65 -4.4,-1.6 -7.6,-2.41 -10.82,2.4 -3.22,4.8 -12.41,15.64 -15.22,18.86 -2.8,3.2 -5.62,3.61 -10.42,1.2 -4.81,-2.41 -20.3,-7.48 -38.66,-23.86 -14.29,-12.75 -23.95,-28.49 -26.75,-33.31 -2.79,-4.82 -0.29,-7.41 2.11,-9.81 2.17,-2.15 4.8,-5.61 7.21,-8.42 2.43,-2.79 3.22,-4.79 4.84,-8.01 1.6,-3.21 0.81,-6.02 -0.41,-8.43 -1.21,-2.4 -10.82,-26.06 -14.81,-35.69 -3.9,-9.38 -7.87,-8.1 -10.83,-8.25 -2.79,-0.15 -6,-0.16 -9.22,-0.16 -3.2,0 -8.41,1.2 -12.81,6.02 -4.4,4.82 -16.82,16.45 -16.82,40.1 0,23.67 17.22,46.53 19.62,49.73 2.39,3.2 33.89,51.77 82.12,72.59 11.46,4.95 20.43,7.91 27.4,10.13 11.52,3.65 22,3.13 30.28,1.91 9.24,-1.38 28.44,-11.64 32.45,-22.86 4.02,-11.23 4.02,-20.87 2.8,-22.86 -1.19,-2.02 -4.4,-3.22 -9.2,-5.63z"/>
 </g>
</svg>
