<?xml version="1.0" encoding="UTF-8"?>
<!DOCTYPE svg PUBLIC "-//W3C//DTD SVG 1.1//EN" "http://www.w3.org/Graphics/SVG/1.1/DTD/svg11.dtd">
<!-- Creator: CorelDRAW 2021 (64-Bit) -->
<svg xmlns="http://www.w3.org/2000/svg" xml:space="preserve" width="15px" height="15px" version="1.1" shape-rendering="geometricPrecision" text-rendering="geometricPrecision" image-rendering="optimizeQuality" fill-rule="evenodd" clip-rule="evenodd"
viewBox="0 0 2539.98 2539.98"
 xmlns:xlink="http://www.w3.org/1999/xlink"
 xmlns:xodm="http://www.corel.com/coreldraw/odm/2003">
 <g id="Layer_x0020_1">
  <metadata id="CorelCorpID_0Corel-Layer"/>
  <path fill="#056BCE" fill-rule="nonzero" d="M1269.99 -0.01c-700.18,0 -1270,569.82 -1270,1270 0,700.18 569.82,1270 1270,1270 700.18,0 1270,-569.82 1270,-1270 0,-700.18 -569.82,-1270 -1270,-1270zm534.07 861.59l-660.72 600.57 -233.3 -259.35c-37.08,-41.1 -100.59,-44.44 -141.7,-7.35 -41.11,37.11 -44.44,100.27 -7.35,141.7l300.8 334.22c17.71,19.71 42.76,31.75 69.51,33.08 1.67,0 3.33,0 5.01,0 24.74,0 48.8,-9.35 67.5,-26.05l735.27 -668.43c41.1,-37.1 44.11,-100.59 6.68,-141.7 -37.08,-40.78 -100.59,-43.79 -141.7,-6.69zm-534.07 1477.88c-589.88,0 -1069.47,-479.93 -1069.47,-1069.47 0,-589.54 479.59,-1069.47 1069.47,-1069.47 589.88,0 1069.47,479.93 1069.47,1069.47 0,589.54 -479.59,1069.47 -1069.47,1069.47z"/>
 </g>
</svg>
