<?xml version="1.0" encoding="UTF-8"?>
<!DOCTYPE svg PUBLIC "-//W3C//DTD SVG 1.1//EN" "http://www.w3.org/Graphics/SVG/1.1/DTD/svg11.dtd">
<!-- Creator: CorelDRAW 2021 (64-Bit) -->
<svg xmlns="http://www.w3.org/2000/svg" xml:space="preserve" width="8.7282mm" height="8.7282mm" version="1.1" shape-rendering="geometricPrecision" text-rendering="geometricPrecision" image-rendering="optimizeQuality" fill-rule="evenodd" clip-rule="evenodd"
viewBox="0 0 872.82 872.82"
 xmlns:xlink="http://www.w3.org/1999/xlink"
 xmlns:xodm="http://www.corel.com/coreldraw/odm/2003">
 <g id="Layer_x0020_1">
  <metadata id="CorelCorpID_0Corel-Layer"/>
  <path fill="#FF7B00" fill-rule="nonzero" d="M432.55 3.86c-240.6,0 -436.41,195.81 -436.41,436.41 0,240.6 195.81,436.41 436.41,436.41 240.6,0 436.41,-195.81 436.41,-436.41 0,-240.6 -195.81,-436.41 -436.41,-436.41zm183.52 296.07l-227.04 206.37 -80.17 -89.12c-12.74,-14.12 -34.57,-15.27 -48.69,-2.52 -14.13,12.75 -15.27,34.45 -2.53,48.69l103.37 114.84c6.08,6.78 14.69,10.92 23.88,11.37 0.58,0 1.15,0 1.72,0 8.51,0 16.77,-3.21 23.2,-8.95l252.66 -229.69c14.12,-12.75 15.16,-34.57 2.3,-48.69 -12.75,-14.02 -34.57,-15.05 -48.7,-2.3zm-183.52 507.84c-202.7,0 -367.5,-164.92 -367.5,-367.5 0,-202.58 164.8,-367.5 367.5,-367.5 202.7,0 367.5,164.92 367.5,367.5 0,202.58 -164.8,367.5 -367.5,367.5z"/>
 </g>
</svg>
